<?xml version="1.0" encoding="UTF-8" standalone="no"?>
<!DOCTYPE svg PUBLIC "-//W3C//DTD SVG 1.1//EN"
 "http://www.w3.org/Graphics/SVG/1.1/DTD/svg11.dtd">
<!-- Generated by graphviz version 2.47.0 (20210316.0004)
 -->
<!-- Title: dependencies Pages: 1 -->
<svg width="638pt" height="211pt"
 viewBox="0.00 0.00 638.00 211.00" xmlns="http://www.w3.org/2000/svg" xmlns:xlink="http://www.w3.org/1999/xlink">
<g id="graph0" class="graph" transform="scale(1 1) rotate(0) translate(4 207)">
<title>dependencies</title>
<polygon fill="white" stroke="transparent" points="-4,4 -4,-207 634,-207 634,4 -4,4"/>
<text text-anchor="start" x="294.01" y="-42.4" font-family="Times-12" font-weight="bold" font-size="14.00">Legend</text>
<polygon fill="#ffffb3" stroke="transparent" points="81,-10 81,-30 101,-30 101,-10 81,-10"/>
<text text-anchor="start" x="104.63" y="-15.4" font-family="Times-12" font-size="14.00"> &#160;Declarations</text>
<polygon fill="#8dd3c7" stroke="transparent" points="194,-10 194,-30 214,-30 214,-10 194,-10"/>
<text text-anchor="start" x="217.73" y="-15.4" font-family="Times-12" font-size="14.00"> &#160;Module</text>
<polygon fill="#80b1d3" stroke="transparent" points="280,-10 280,-30 300,-30 300,-10 280,-10"/>
<text text-anchor="start" x="303.78" y="-15.4" font-family="Times-12" font-size="14.00"> &#160;Bootstrap</text>
<polygon fill="#fdb462" stroke="transparent" points="377,-10 377,-30 397,-30 397,-10 377,-10"/>
<text text-anchor="start" x="400.67" y="-15.4" font-family="Times-12" font-size="14.00"> &#160;Providers</text>
<polygon fill="#fb8072" stroke="transparent" points="473,-10 473,-30 493,-30 493,-10 473,-10"/>
<text text-anchor="start" x="496.73" y="-15.4" font-family="Times-12" font-size="14.00"> &#160;Exports</text>
<g id="clust1" class="cluster">
<title>cluster_CodeModule</title>
<polygon fill="none" stroke="black" stroke-dasharray="1,5" points="8,-70 8,-195 622,-195 622,-70 8,-70"/>
</g>
<g id="clust6" class="cluster">
<title>cluster_CodeModule_providers</title>
<polygon fill="none" stroke="black" points="16,-78 16,-130 614,-130 614,-78 16,-78"/>
</g>
<!-- CodeService -->
<g id="node1" class="node">
<title>CodeService</title>
<ellipse fill="#fdb462" stroke="black" cx="546" cy="-104" rx="60.25" ry="18"/>
<text text-anchor="middle" x="546" y="-99.8" font-family="Times,serif" font-size="14.00">CodeService</text>
</g>
<!-- CodeModule -->
<g id="node5" class="node">
<title>CodeModule</title>
<polygon fill="#8dd3c7" stroke="black" points="358.6,-187 355.6,-191 334.6,-191 331.6,-187 269.4,-187 269.4,-151 358.6,-151 358.6,-187"/>
<text text-anchor="middle" x="314" y="-164.8" font-family="Times,serif" font-size="14.00">CodeModule</text>
</g>
<!-- CodeService&#45;&gt;CodeModule -->
<g id="edge1" class="edge">
<title>CodeService&#45;&gt;CodeModule</title>
<path fill="none" stroke="black" d="M546,-122.11C546,-141.34 546,-169 546,-169 546,-169 368.73,-169 368.73,-169"/>
<polygon fill="black" stroke="black" points="368.73,-165.5 358.73,-169 368.73,-172.5 368.73,-165.5"/>
</g>
<!-- EvaluateService -->
<g id="node2" class="node">
<title>EvaluateService</title>
<ellipse fill="#fdb462" stroke="black" cx="394" cy="-104" rx="73.55" ry="18"/>
<text text-anchor="middle" x="394" y="-99.8" font-family="Times,serif" font-size="14.00">EvaluateService</text>
</g>
<!-- EvaluateService&#45;&gt;CodeModule -->
<g id="edge2" class="edge">
<title>EvaluateService&#45;&gt;CodeModule</title>
<path fill="none" stroke="black" d="M339.39,-116.23C339.39,-116.23 339.39,-140.68 339.39,-140.68"/>
<polygon fill="black" stroke="black" points="335.89,-140.68 339.39,-150.68 342.89,-140.68 335.89,-140.68"/>
</g>
<!-- PrismaService -->
<g id="node3" class="node">
<title>PrismaService</title>
<ellipse fill="#fdb462" stroke="black" cx="235" cy="-104" rx="66.63" ry="18"/>
<text text-anchor="middle" x="235" y="-99.8" font-family="Times,serif" font-size="14.00">PrismaService</text>
</g>
<!-- PrismaService&#45;&gt;CodeModule -->
<g id="edge3" class="edge">
<title>PrismaService&#45;&gt;CodeModule</title>
<path fill="none" stroke="black" d="M285.63,-115.92C285.63,-115.92 285.63,-140.77 285.63,-140.77"/>
<polygon fill="black" stroke="black" points="282.13,-140.77 285.63,-150.77 289.13,-140.77 282.13,-140.77"/>
</g>
<!-- QuizzService -->
<g id="node4" class="node">
<title>QuizzService</title>
<ellipse fill="#fdb462" stroke="black" cx="87" cy="-104" rx="63.1" ry="18"/>
<text text-anchor="middle" x="87" y="-99.8" font-family="Times,serif" font-size="14.00">QuizzService</text>
</g>
<!-- QuizzService&#45;&gt;CodeModule -->
<g id="edge4" class="edge">
<title>QuizzService&#45;&gt;CodeModule</title>
<path fill="none" stroke="black" d="M87,-122.11C87,-141.34 87,-169 87,-169 87,-169 259.42,-169 259.42,-169"/>
<polygon fill="black" stroke="black" points="259.42,-172.5 269.42,-169 259.42,-165.5 259.42,-172.5"/>
</g>
</g>
</svg>
