<?xml version="1.0" encoding="UTF-8" standalone="no"?>
<!DOCTYPE svg PUBLIC "-//W3C//DTD SVG 1.1//EN"
 "http://www.w3.org/Graphics/SVG/1.1/DTD/svg11.dtd">
<!-- Generated by graphviz version 2.47.0 (20210316.0004)
 -->
<!-- Title: dependencies Pages: 1 -->
<svg width="504pt" height="211pt"
 viewBox="0.00 0.00 504.00 211.00" xmlns="http://www.w3.org/2000/svg" xmlns:xlink="http://www.w3.org/1999/xlink">
<g id="graph0" class="graph" transform="scale(1 1) rotate(0) translate(4 207)">
<title>dependencies</title>
<polygon fill="white" stroke="transparent" points="-4,4 -4,-207 500,-207 500,4 -4,4"/>
<text text-anchor="start" x="227.01" y="-42.4" font-family="Times-12" font-weight="bold" font-size="14.00">Legend</text>
<polygon fill="#ffffb3" stroke="transparent" points="14,-10 14,-30 34,-30 34,-10 14,-10"/>
<text text-anchor="start" x="37.63" y="-15.4" font-family="Times-12" font-size="14.00"> &#160;Declarations</text>
<polygon fill="#8dd3c7" stroke="transparent" points="127,-10 127,-30 147,-30 147,-10 127,-10"/>
<text text-anchor="start" x="150.73" y="-15.4" font-family="Times-12" font-size="14.00"> &#160;Module</text>
<polygon fill="#80b1d3" stroke="transparent" points="213,-10 213,-30 233,-30 233,-10 213,-10"/>
<text text-anchor="start" x="236.78" y="-15.4" font-family="Times-12" font-size="14.00"> &#160;Bootstrap</text>
<polygon fill="#fdb462" stroke="transparent" points="310,-10 310,-30 330,-30 330,-10 310,-10"/>
<text text-anchor="start" x="333.67" y="-15.4" font-family="Times-12" font-size="14.00"> &#160;Providers</text>
<polygon fill="#fb8072" stroke="transparent" points="406,-10 406,-30 426,-30 426,-10 406,-10"/>
<text text-anchor="start" x="429.73" y="-15.4" font-family="Times-12" font-size="14.00"> &#160;Exports</text>
<g id="clust1" class="cluster">
<title>cluster_UserProgressModule</title>
<polygon fill="none" stroke="black" stroke-dasharray="1,5" points="65,-70 65,-195 431,-195 431,-70 65,-70"/>
</g>
<g id="clust6" class="cluster">
<title>cluster_UserProgressModule_providers</title>
<polygon fill="none" stroke="black" points="73,-78 73,-130 423,-130 423,-78 73,-78"/>
</g>
<!-- PrismaService -->
<g id="node1" class="node">
<title>PrismaService</title>
<ellipse fill="#fdb462" stroke="black" cx="348" cy="-104" rx="66.63" ry="18"/>
<text text-anchor="middle" x="348" y="-99.8" font-family="Times,serif" font-size="14.00">PrismaService</text>
</g>
<!-- UserProgressModule -->
<g id="node3" class="node">
<title>UserProgressModule</title>
<polygon fill="#8dd3c7" stroke="black" points="327.18,-187 324.18,-191 303.18,-191 300.18,-187 192.82,-187 192.82,-151 327.18,-151 327.18,-187"/>
<text text-anchor="middle" x="260" y="-164.8" font-family="Times,serif" font-size="14.00">UserProgressModule</text>
</g>
<!-- PrismaService&#45;&gt;UserProgressModule -->
<g id="edge1" class="edge">
<title>PrismaService&#45;&gt;UserProgressModule</title>
<path fill="none" stroke="black" d="M304.14,-117.78C304.14,-117.78 304.14,-140.55 304.14,-140.55"/>
<polygon fill="black" stroke="black" points="300.64,-140.55 304.14,-150.55 307.64,-140.55 300.64,-140.55"/>
</g>
<!-- UserProgressService -->
<g id="node2" class="node">
<title>UserProgressService</title>
<ellipse fill="#fdb462" stroke="black" cx="172" cy="-104" rx="91.45" ry="18"/>
<text text-anchor="middle" x="172" y="-99.8" font-family="Times,serif" font-size="14.00">UserProgressService</text>
</g>
<!-- UserProgressService&#45;&gt;UserProgressModule -->
<g id="edge2" class="edge">
<title>UserProgressService&#45;&gt;UserProgressModule</title>
<path fill="none" stroke="black" d="M228.19,-118.43C228.19,-118.43 228.19,-140.89 228.19,-140.89"/>
<polygon fill="black" stroke="black" points="224.69,-140.89 228.19,-150.89 231.69,-140.89 224.69,-140.89"/>
</g>
</g>
</svg>
