<?xml version="1.0" encoding="UTF-8" standalone="no"?>
<!DOCTYPE svg PUBLIC "-//W3C//DTD SVG 1.1//EN"
 "http://www.w3.org/Graphics/SVG/1.1/DTD/svg11.dtd">
<!-- Generated by graphviz version 2.47.0 (20210316.0004)
 -->
<!-- Title: dependencies Pages: 1 -->
<svg width="647pt" height="211pt"
 viewBox="0.00 0.00 647.00 211.00" xmlns="http://www.w3.org/2000/svg" xmlns:xlink="http://www.w3.org/1999/xlink">
<g id="graph0" class="graph" transform="scale(1 1) rotate(0) translate(4 207)">
<title>dependencies</title>
<polygon fill="white" stroke="transparent" points="-4,4 -4,-207 643,-207 643,4 -4,4"/>
<text text-anchor="start" x="298.51" y="-42.4" font-family="Times-12" font-weight="bold" font-size="14.00">Legend</text>
<polygon fill="#ffffb3" stroke="transparent" points="85.5,-10 85.5,-30 105.5,-30 105.5,-10 85.5,-10"/>
<text text-anchor="start" x="109.13" y="-15.4" font-family="Times-12" font-size="14.00"> &#160;Declarations</text>
<polygon fill="#8dd3c7" stroke="transparent" points="198.5,-10 198.5,-30 218.5,-30 218.5,-10 198.5,-10"/>
<text text-anchor="start" x="222.23" y="-15.4" font-family="Times-12" font-size="14.00"> &#160;Module</text>
<polygon fill="#80b1d3" stroke="transparent" points="284.5,-10 284.5,-30 304.5,-30 304.5,-10 284.5,-10"/>
<text text-anchor="start" x="308.28" y="-15.4" font-family="Times-12" font-size="14.00"> &#160;Bootstrap</text>
<polygon fill="#fdb462" stroke="transparent" points="381.5,-10 381.5,-30 401.5,-30 401.5,-10 381.5,-10"/>
<text text-anchor="start" x="405.17" y="-15.4" font-family="Times-12" font-size="14.00"> &#160;Providers</text>
<polygon fill="#fb8072" stroke="transparent" points="477.5,-10 477.5,-30 497.5,-30 497.5,-10 477.5,-10"/>
<text text-anchor="start" x="501.23" y="-15.4" font-family="Times-12" font-size="14.00"> &#160;Exports</text>
<g id="clust1" class="cluster">
<title>cluster_UploadModule</title>
<polygon fill="none" stroke="black" stroke-dasharray="1,5" points="8,-70 8,-195 631,-195 631,-70 8,-70"/>
</g>
<g id="clust6" class="cluster">
<title>cluster_UploadModule_providers</title>
<polygon fill="none" stroke="black" points="16,-78 16,-130 623,-130 623,-78 16,-78"/>
</g>
<!-- ChatgptService -->
<g id="node1" class="node">
<title>ChatgptService</title>
<ellipse fill="#fdb462" stroke="black" cx="544" cy="-104" rx="70.64" ry="18"/>
<text text-anchor="middle" x="544" y="-99.8" font-family="Times,serif" font-size="14.00">ChatgptService</text>
</g>
<!-- UploadModule -->
<g id="node5" class="node">
<title>UploadModule</title>
<polygon fill="#8dd3c7" stroke="black" points="365.26,-187 362.26,-191 341.26,-191 338.26,-187 264.74,-187 264.74,-151 365.26,-151 365.26,-187"/>
<text text-anchor="middle" x="315" y="-164.8" font-family="Times,serif" font-size="14.00">UploadModule</text>
</g>
<!-- ChatgptService&#45;&gt;UploadModule -->
<g id="edge1" class="edge">
<title>ChatgptService&#45;&gt;UploadModule</title>
<path fill="none" stroke="black" d="M544,-122.11C544,-141.34 544,-169 544,-169 544,-169 375.54,-169 375.54,-169"/>
<polygon fill="black" stroke="black" points="375.54,-165.5 365.54,-169 375.54,-172.5 375.54,-165.5"/>
</g>
<!-- PrismaService -->
<g id="node2" class="node">
<title>PrismaService</title>
<ellipse fill="#fdb462" stroke="black" cx="389" cy="-104" rx="66.63" ry="18"/>
<text text-anchor="middle" x="389" y="-99.8" font-family="Times,serif" font-size="14.00">PrismaService</text>
</g>
<!-- PrismaService&#45;&gt;UploadModule -->
<g id="edge2" class="edge">
<title>PrismaService&#45;&gt;UploadModule</title>
<path fill="none" stroke="black" d="M343.78,-117.47C343.78,-117.47 343.78,-140.86 343.78,-140.86"/>
<polygon fill="black" stroke="black" points="340.28,-140.86 343.78,-150.86 347.28,-140.86 340.28,-140.86"/>
</g>
<!-- QuizzService -->
<g id="node3" class="node">
<title>QuizzService</title>
<ellipse fill="#fdb462" stroke="black" cx="241" cy="-104" rx="63.1" ry="18"/>
<text text-anchor="middle" x="241" y="-99.8" font-family="Times,serif" font-size="14.00">QuizzService</text>
</g>
<!-- QuizzService&#45;&gt;UploadModule -->
<g id="edge3" class="edge">
<title>QuizzService&#45;&gt;UploadModule</title>
<path fill="none" stroke="black" d="M284.33,-117.15C284.33,-117.15 284.33,-140.69 284.33,-140.69"/>
<polygon fill="black" stroke="black" points="280.83,-140.69 284.33,-150.69 287.83,-140.69 280.83,-140.69"/>
</g>
<!-- UploadService -->
<g id="node4" class="node">
<title>UploadService</title>
<ellipse fill="#fdb462" stroke="black" cx="92" cy="-104" rx="68.34" ry="18"/>
<text text-anchor="middle" x="92" y="-99.8" font-family="Times,serif" font-size="14.00">UploadService</text>
</g>
<!-- UploadService&#45;&gt;UploadModule -->
<g id="edge4" class="edge">
<title>UploadService&#45;&gt;UploadModule</title>
<path fill="none" stroke="black" d="M92,-122.11C92,-141.34 92,-169 92,-169 92,-169 254.68,-169 254.68,-169"/>
<polygon fill="black" stroke="black" points="254.68,-172.5 264.68,-169 254.68,-165.5 254.68,-172.5"/>
</g>
</g>
</svg>
