<?xml version="1.0" encoding="UTF-8" standalone="no"?>
<!DOCTYPE svg PUBLIC "-//W3C//DTD SVG 1.1//EN"
 "http://www.w3.org/Graphics/SVG/1.1/DTD/svg11.dtd">
<!-- Generated by graphviz version 2.47.0 (20210316.0004)
 -->
<!-- Title: dependencies Pages: 1 -->
<svg width="504pt" height="211pt"
 viewBox="0.00 0.00 504.00 211.00" xmlns="http://www.w3.org/2000/svg" xmlns:xlink="http://www.w3.org/1999/xlink">
<g id="graph0" class="graph" transform="scale(1 1) rotate(0) translate(4 207)">
<title>dependencies</title>
<polygon fill="white" stroke="transparent" points="-4,4 -4,-207 500,-207 500,4 -4,4"/>
<text text-anchor="start" x="227.01" y="-42.4" font-family="Times-12" font-weight="bold" font-size="14.00">Legend</text>
<polygon fill="#ffffb3" stroke="transparent" points="14,-10 14,-30 34,-30 34,-10 14,-10"/>
<text text-anchor="start" x="37.63" y="-15.4" font-family="Times-12" font-size="14.00"> &#160;Declarations</text>
<polygon fill="#8dd3c7" stroke="transparent" points="127,-10 127,-30 147,-30 147,-10 127,-10"/>
<text text-anchor="start" x="150.73" y="-15.4" font-family="Times-12" font-size="14.00"> &#160;Module</text>
<polygon fill="#80b1d3" stroke="transparent" points="213,-10 213,-30 233,-30 233,-10 213,-10"/>
<text text-anchor="start" x="236.78" y="-15.4" font-family="Times-12" font-size="14.00"> &#160;Bootstrap</text>
<polygon fill="#fdb462" stroke="transparent" points="310,-10 310,-30 330,-30 330,-10 310,-10"/>
<text text-anchor="start" x="333.67" y="-15.4" font-family="Times-12" font-size="14.00"> &#160;Providers</text>
<polygon fill="#fb8072" stroke="transparent" points="406,-10 406,-30 426,-30 426,-10 406,-10"/>
<text text-anchor="start" x="429.73" y="-15.4" font-family="Times-12" font-size="14.00"> &#160;Exports</text>
<g id="clust1" class="cluster">
<title>cluster_UploadModule</title>
<polygon fill="none" stroke="black" stroke-dasharray="1,5" points="88,-70 88,-195 408,-195 408,-70 88,-70"/>
</g>
<g id="clust6" class="cluster">
<title>cluster_UploadModule_providers</title>
<polygon fill="none" stroke="black" points="96,-78 96,-130 400,-130 400,-78 96,-78"/>
</g>
<!-- PrismaService -->
<g id="node1" class="node">
<title>PrismaService</title>
<ellipse fill="#fdb462" stroke="black" cx="325" cy="-104" rx="66.63" ry="18"/>
<text text-anchor="middle" x="325" y="-99.8" font-family="Times,serif" font-size="14.00">PrismaService</text>
</g>
<!-- UploadModule -->
<g id="node3" class="node">
<title>UploadModule</title>
<polygon fill="#8dd3c7" stroke="black" points="298.26,-187 295.26,-191 274.26,-191 271.26,-187 197.74,-187 197.74,-151 298.26,-151 298.26,-187"/>
<text text-anchor="middle" x="248" y="-164.8" font-family="Times,serif" font-size="14.00">UploadModule</text>
</g>
<!-- PrismaService&#45;&gt;UploadModule -->
<g id="edge1" class="edge">
<title>PrismaService&#45;&gt;UploadModule</title>
<path fill="none" stroke="black" d="M278.28,-117.15C278.28,-117.15 278.28,-140.69 278.28,-140.69"/>
<polygon fill="black" stroke="black" points="274.78,-140.69 278.28,-150.69 281.78,-140.69 274.78,-140.69"/>
</g>
<!-- UploadService -->
<g id="node2" class="node">
<title>UploadService</title>
<ellipse fill="#fdb462" stroke="black" cx="172" cy="-104" rx="68.34" ry="18"/>
<text text-anchor="middle" x="172" y="-99.8" font-family="Times,serif" font-size="14.00">UploadService</text>
</g>
<!-- UploadService&#45;&gt;UploadModule -->
<g id="edge2" class="edge">
<title>UploadService&#45;&gt;UploadModule</title>
<path fill="none" stroke="black" d="M219.02,-117.15C219.02,-117.15 219.02,-140.69 219.02,-140.69"/>
<polygon fill="black" stroke="black" points="215.52,-140.69 219.02,-150.69 222.52,-140.69 215.52,-140.69"/>
</g>
</g>
</svg>
