<?xml version="1.0" encoding="UTF-8" standalone="no"?>
<!DOCTYPE svg PUBLIC "-//W3C//DTD SVG 1.1//EN"
 "http://www.w3.org/Graphics/SVG/1.1/DTD/svg11.dtd">
<!-- Generated by graphviz version 2.47.0 (20210316.0004)
 -->
<!-- Title: dependencies Pages: 1 -->
<svg width="2202pt" height="211pt"
 viewBox="0.00 0.00 2202.00 211.00" xmlns="http://www.w3.org/2000/svg" xmlns:xlink="http://www.w3.org/1999/xlink">
<g id="graph0" class="graph" transform="scale(1 1) rotate(0) translate(4 207)">
<title>dependencies</title>
<polygon fill="white" stroke="transparent" points="-4,4 -4,-207 2198,-207 2198,4 -4,4"/>
<text text-anchor="start" x="1076.01" y="-42.4" font-family="Times-12" font-weight="bold" font-size="14.00">Legend</text>
<polygon fill="#ffffb3" stroke="transparent" points="863,-10 863,-30 883,-30 883,-10 863,-10"/>
<text text-anchor="start" x="886.63" y="-15.4" font-family="Times-12" font-size="14.00"> &#160;Declarations</text>
<polygon fill="#8dd3c7" stroke="transparent" points="976,-10 976,-30 996,-30 996,-10 976,-10"/>
<text text-anchor="start" x="999.73" y="-15.4" font-family="Times-12" font-size="14.00"> &#160;Module</text>
<polygon fill="#80b1d3" stroke="transparent" points="1062,-10 1062,-30 1082,-30 1082,-10 1062,-10"/>
<text text-anchor="start" x="1085.78" y="-15.4" font-family="Times-12" font-size="14.00"> &#160;Bootstrap</text>
<polygon fill="#fdb462" stroke="transparent" points="1159,-10 1159,-30 1179,-30 1179,-10 1159,-10"/>
<text text-anchor="start" x="1182.67" y="-15.4" font-family="Times-12" font-size="14.00"> &#160;Providers</text>
<polygon fill="#fb8072" stroke="transparent" points="1255,-10 1255,-30 1275,-30 1275,-10 1255,-10"/>
<text text-anchor="start" x="1278.73" y="-15.4" font-family="Times-12" font-size="14.00"> &#160;Exports</text>
<g id="clust1" class="cluster">
<title>cluster_AppModule</title>
<polygon fill="none" stroke="black" stroke-dasharray="1,5" points="8,-70 8,-195 2186,-195 2186,-70 8,-70"/>
</g>
<g id="clust6" class="cluster">
<title>cluster_AppModule_providers</title>
<polygon fill="none" stroke="black" points="1897,-78 1897,-130 2178,-130 2178,-78 1897,-78"/>
</g>
<g id="clust3" class="cluster">
<title>cluster_AppModule_imports</title>
<polygon fill="none" stroke="black" points="16,-78 16,-130 1889,-130 1889,-78 16,-78"/>
</g>
<!-- AttachmentModule -->
<g id="node1" class="node">
<title>AttachmentModule</title>
<polygon fill="#8dd3c7" stroke="black" points="1881.36,-122 1878.36,-126 1857.36,-126 1854.36,-122 1756.64,-122 1756.64,-86 1881.36,-86 1881.36,-122"/>
<text text-anchor="middle" x="1819" y="-99.8" font-family="Times,serif" font-size="14.00">AttachmentModule</text>
</g>
<!-- AppModule -->
<g id="node16" class="node">
<title>AppModule</title>
<polygon fill="#8dd3c7" stroke="black" points="1138.66,-187 1135.66,-191 1114.66,-191 1111.66,-187 1055.34,-187 1055.34,-151 1138.66,-151 1138.66,-187"/>
<text text-anchor="middle" x="1097" y="-164.8" font-family="Times,serif" font-size="14.00">AppModule</text>
</g>
<!-- AttachmentModule&#45;&gt;AppModule -->
<g id="edge1" class="edge">
<title>AttachmentModule&#45;&gt;AppModule</title>
<path fill="none" stroke="black" d="M1819,-122.28C1819,-143.32 1819,-175 1819,-175 1819,-175 1148.67,-175 1148.67,-175"/>
<polygon fill="black" stroke="black" points="1148.67,-171.5 1138.67,-175 1148.67,-178.5 1148.67,-171.5"/>
</g>
<!-- AuthModule -->
<g id="node2" class="node">
<title>AuthModule</title>
<polygon fill="#8dd3c7" stroke="black" points="1738.55,-122 1735.55,-126 1714.55,-126 1711.55,-122 1651.45,-122 1651.45,-86 1738.55,-86 1738.55,-122"/>
<text text-anchor="middle" x="1695" y="-99.8" font-family="Times,serif" font-size="14.00">AuthModule</text>
</g>
<!-- AuthModule&#45;&gt;AppModule -->
<g id="edge2" class="edge">
<title>AuthModule&#45;&gt;AppModule</title>
<path fill="none" stroke="black" d="M1695,-122.31C1695,-142.15 1695,-171 1695,-171 1695,-171 1149.05,-171 1149.05,-171"/>
<polygon fill="black" stroke="black" points="1149.05,-167.5 1139.05,-171 1149.05,-174.5 1149.05,-167.5"/>
</g>
<!-- ChapterModule -->
<g id="node3" class="node">
<title>ChapterModule</title>
<polygon fill="#8dd3c7" stroke="black" points="1632.87,-122 1629.87,-126 1608.87,-126 1605.87,-122 1529.13,-122 1529.13,-86 1632.87,-86 1632.87,-122"/>
<text text-anchor="middle" x="1581" y="-99.8" font-family="Times,serif" font-size="14.00">ChapterModule</text>
</g>
<!-- ChapterModule&#45;&gt;AppModule -->
<g id="edge3" class="edge">
<title>ChapterModule&#45;&gt;AppModule</title>
<path fill="none" stroke="black" d="M1581,-122.22C1581,-140.83 1581,-167 1581,-167 1581,-167 1148.68,-167 1148.68,-167"/>
<polygon fill="black" stroke="black" points="1148.68,-163.5 1138.68,-167 1148.68,-170.5 1148.68,-163.5"/>
</g>
<!-- ChatgptModule -->
<g id="node4" class="node">
<title>ChatgptModule</title>
<polygon fill="#8dd3c7" stroke="black" points="1510.88,-122 1507.88,-126 1486.88,-126 1483.88,-122 1407.12,-122 1407.12,-86 1510.88,-86 1510.88,-122"/>
<text text-anchor="middle" x="1459" y="-99.8" font-family="Times,serif" font-size="14.00">ChatgptModule</text>
</g>
<!-- ChatgptModule&#45;&gt;AppModule -->
<g id="edge4" class="edge">
<title>ChatgptModule&#45;&gt;AppModule</title>
<path fill="none" stroke="black" d="M1459,-122.02C1459,-139.37 1459,-163 1459,-163 1459,-163 1148.88,-163 1148.88,-163"/>
<polygon fill="black" stroke="black" points="1148.88,-159.5 1138.88,-163 1148.88,-166.5 1148.88,-159.5"/>
</g>
<!-- CourseModule -->
<g id="node5" class="node">
<title>CourseModule</title>
<polygon fill="#8dd3c7" stroke="black" points="1388.71,-122 1385.71,-126 1364.71,-126 1361.71,-122 1289.29,-122 1289.29,-86 1388.71,-86 1388.71,-122"/>
<text text-anchor="middle" x="1339" y="-99.8" font-family="Times,serif" font-size="14.00">CourseModule</text>
</g>
<!-- CourseModule&#45;&gt;AppModule -->
<g id="edge5" class="edge">
<title>CourseModule&#45;&gt;AppModule</title>
<path fill="none" stroke="black" d="M1339,-122.01C1339,-138.05 1339,-159 1339,-159 1339,-159 1148.88,-159 1148.88,-159"/>
<polygon fill="black" stroke="black" points="1148.88,-155.5 1138.88,-159 1148.88,-162.5 1148.88,-155.5"/>
</g>
<!-- ExerciseModule -->
<g id="node6" class="node">
<title>ExerciseModule</title>
<polygon fill="#8dd3c7" stroke="black" points="1271.74,-122 1268.74,-126 1247.74,-126 1244.74,-122 1164.26,-122 1164.26,-86 1271.74,-86 1271.74,-122"/>
<text text-anchor="middle" x="1218" y="-99.8" font-family="Times,serif" font-size="14.00">ExerciseModule</text>
</g>
<!-- ExerciseModule&#45;&gt;AppModule -->
<g id="edge6" class="edge">
<title>ExerciseModule&#45;&gt;AppModule</title>
<path fill="none" stroke="black" d="M1218,-122.12C1218,-136.78 1218,-155 1218,-155 1218,-155 1148.98,-155 1148.98,-155"/>
<polygon fill="black" stroke="black" points="1148.98,-151.5 1138.98,-155 1148.98,-158.5 1148.98,-151.5"/>
</g>
<!-- LessonModule -->
<g id="node7" class="node">
<title>LessonModule</title>
<polygon fill="#8dd3c7" stroke="black" points="1146.71,-122 1143.71,-126 1122.71,-126 1119.71,-122 1047.29,-122 1047.29,-86 1146.71,-86 1146.71,-122"/>
<text text-anchor="middle" x="1097" y="-99.8" font-family="Times,serif" font-size="14.00">LessonModule</text>
</g>
<!-- LessonModule&#45;&gt;AppModule -->
<g id="edge7" class="edge">
<title>LessonModule&#45;&gt;AppModule</title>
<path fill="none" stroke="black" d="M1097,-122.11C1097,-122.11 1097,-140.99 1097,-140.99"/>
<polygon fill="black" stroke="black" points="1093.5,-140.99 1097,-150.99 1100.5,-140.99 1093.5,-140.99"/>
</g>
<!-- MailingModule -->
<g id="node8" class="node">
<title>MailingModule</title>
<polygon fill="#8dd3c7" stroke="black" points="1028.88,-122 1025.88,-126 1004.88,-126 1001.88,-122 925.12,-122 925.12,-86 1028.88,-86 1028.88,-122"/>
<text text-anchor="middle" x="977" y="-99.8" font-family="Times,serif" font-size="14.00">MailingModule</text>
</g>
<!-- MailingModule&#45;&gt;AppModule -->
<g id="edge8" class="edge">
<title>MailingModule&#45;&gt;AppModule</title>
<path fill="none" stroke="black" d="M977,-122.12C977,-136.78 977,-155 977,-155 977,-155 1045.03,-155 1045.03,-155"/>
<polygon fill="black" stroke="black" points="1045.03,-158.5 1055.03,-155 1045.03,-151.5 1045.03,-158.5"/>
</g>
<!-- QuizzModule -->
<g id="node9" class="node">
<title>QuizzModule</title>
<polygon fill="#8dd3c7" stroke="black" points="907.48,-122 904.48,-126 883.48,-126 880.48,-122 814.52,-122 814.52,-86 907.48,-86 907.48,-122"/>
<text text-anchor="middle" x="861" y="-99.8" font-family="Times,serif" font-size="14.00">QuizzModule</text>
</g>
<!-- QuizzModule&#45;&gt;AppModule -->
<g id="edge9" class="edge">
<title>QuizzModule&#45;&gt;AppModule</title>
<path fill="none" stroke="black" d="M861,-122.01C861,-138.05 861,-159 861,-159 861,-159 1045.08,-159 1045.08,-159"/>
<polygon fill="black" stroke="black" points="1045.08,-162.5 1055.08,-159 1045.08,-155.5 1045.08,-162.5"/>
</g>
<!-- RegisterInstructorModule -->
<g id="node10" class="node">
<title>RegisterInstructorModule</title>
<polygon fill="#8dd3c7" stroke="black" points="796.12,-122 793.12,-126 772.12,-126 769.12,-122 635.88,-122 635.88,-86 796.12,-86 796.12,-122"/>
<text text-anchor="middle" x="716" y="-99.8" font-family="Times,serif" font-size="14.00">RegisterInstructorModule</text>
</g>
<!-- RegisterInstructorModule&#45;&gt;AppModule -->
<g id="edge10" class="edge">
<title>RegisterInstructorModule&#45;&gt;AppModule</title>
<path fill="none" stroke="black" d="M716,-122.02C716,-139.37 716,-163 716,-163 716,-163 1045.14,-163 1045.14,-163"/>
<polygon fill="black" stroke="black" points="1045.14,-166.5 1055.14,-163 1045.14,-159.5 1045.14,-166.5"/>
</g>
<!-- ReviewModule -->
<g id="node11" class="node">
<title>ReviewModule</title>
<polygon fill="#8dd3c7" stroke="black" points="618.31,-122 615.31,-126 594.31,-126 591.31,-122 515.69,-122 515.69,-86 618.31,-86 618.31,-122"/>
<text text-anchor="middle" x="567" y="-99.8" font-family="Times,serif" font-size="14.00">ReviewModule</text>
</g>
<!-- ReviewModule&#45;&gt;AppModule -->
<g id="edge11" class="edge">
<title>ReviewModule&#45;&gt;AppModule</title>
<path fill="none" stroke="black" d="M567,-122.22C567,-140.83 567,-167 567,-167 567,-167 1044.97,-167 1044.97,-167"/>
<polygon fill="black" stroke="black" points="1044.97,-170.5 1054.97,-167 1044.97,-163.5 1044.97,-170.5"/>
</g>
<!-- ThreadModule -->
<g id="node12" class="node">
<title>ThreadModule</title>
<polygon fill="#8dd3c7" stroke="black" points="497.69,-122 494.69,-126 473.69,-126 470.69,-122 398.31,-122 398.31,-86 497.69,-86 497.69,-122"/>
<text text-anchor="middle" x="448" y="-99.8" font-family="Times,serif" font-size="14.00">ThreadModule</text>
</g>
<!-- ThreadModule&#45;&gt;AppModule -->
<g id="edge12" class="edge">
<title>ThreadModule&#45;&gt;AppModule</title>
<path fill="none" stroke="black" d="M448,-122.31C448,-142.15 448,-171 448,-171 448,-171 1044.92,-171 1044.92,-171"/>
<polygon fill="black" stroke="black" points="1044.92,-174.5 1054.92,-171 1044.92,-167.5 1044.92,-174.5"/>
</g>
<!-- UploadModule -->
<g id="node13" class="node">
<title>UploadModule</title>
<polygon fill="#8dd3c7" stroke="black" points="380.26,-122 377.26,-126 356.26,-126 353.26,-122 279.74,-122 279.74,-86 380.26,-86 380.26,-122"/>
<text text-anchor="middle" x="330" y="-99.8" font-family="Times,serif" font-size="14.00">UploadModule</text>
</g>
<!-- UploadModule&#45;&gt;AppModule -->
<g id="edge13" class="edge">
<title>UploadModule&#45;&gt;AppModule</title>
<path fill="none" stroke="black" d="M330,-122.28C330,-143.32 330,-175 330,-175 330,-175 1045.22,-175 1045.22,-175"/>
<polygon fill="black" stroke="black" points="1045.22,-178.5 1055.22,-175 1045.22,-171.5 1045.22,-178.5"/>
</g>
<!-- UserModule -->
<g id="node14" class="node">
<title>UserModule</title>
<polygon fill="#8dd3c7" stroke="black" points="261.98,-122 258.98,-126 237.98,-126 234.98,-122 176.02,-122 176.02,-86 261.98,-86 261.98,-122"/>
<text text-anchor="middle" x="219" y="-99.8" font-family="Times,serif" font-size="14.00">UserModule</text>
</g>
<!-- UserModule&#45;&gt;AppModule -->
<g id="edge14" class="edge">
<title>UserModule&#45;&gt;AppModule</title>
<path fill="none" stroke="black" d="M219,-122.16C219,-144.35 219,-179 219,-179 219,-179 1045.24,-179 1045.24,-179"/>
<polygon fill="black" stroke="black" points="1045.24,-182.5 1055.24,-179 1045.24,-175.5 1045.24,-182.5"/>
</g>
<!-- UserProgressModule -->
<g id="node15" class="node">
<title>UserProgressModule</title>
<polygon fill="#8dd3c7" stroke="black" points="158.18,-122 155.18,-126 134.18,-126 131.18,-122 23.82,-122 23.82,-86 158.18,-86 158.18,-122"/>
<text text-anchor="middle" x="91" y="-99.8" font-family="Times,serif" font-size="14.00">UserProgressModule</text>
</g>
<!-- UserProgressModule&#45;&gt;AppModule -->
<g id="edge15" class="edge">
<title>UserProgressModule&#45;&gt;AppModule</title>
<path fill="none" stroke="black" d="M91,-122.32C91,-145.66 91,-183 91,-183 91,-183 1045.05,-183 1045.05,-183"/>
<polygon fill="black" stroke="black" points="1045.05,-186.5 1055.05,-183 1045.05,-179.5 1045.05,-186.5"/>
</g>
<!-- AppService -->
<g id="node17" class="node">
<title>AppService</title>
<ellipse fill="#fdb462" stroke="black" cx="2113" cy="-104" rx="56.74" ry="18"/>
<text text-anchor="middle" x="2113" y="-99.8" font-family="Times,serif" font-size="14.00">AppService</text>
</g>
<!-- AppService&#45;&gt;AppModule -->
<g id="edge16" class="edge">
<title>AppService&#45;&gt;AppModule</title>
<path fill="none" stroke="black" d="M2113,-122.32C2113,-145.66 2113,-183 2113,-183 2113,-183 1148.72,-183 1148.72,-183"/>
<polygon fill="black" stroke="black" points="1148.72,-179.5 1138.72,-183 1148.72,-186.5 1148.72,-179.5"/>
</g>
<!-- PrismaService -->
<g id="node18" class="node">
<title>PrismaService</title>
<ellipse fill="#fdb462" stroke="black" cx="1972" cy="-104" rx="66.63" ry="18"/>
<text text-anchor="middle" x="1972" y="-99.8" font-family="Times,serif" font-size="14.00">PrismaService</text>
</g>
<!-- PrismaService&#45;&gt;AppModule -->
<g id="edge17" class="edge">
<title>PrismaService&#45;&gt;AppModule</title>
<path fill="none" stroke="black" d="M1972,-122.16C1972,-144.35 1972,-179 1972,-179 1972,-179 1148.91,-179 1148.91,-179"/>
<polygon fill="black" stroke="black" points="1148.91,-175.5 1138.91,-179 1148.91,-182.5 1148.91,-175.5"/>
</g>
</g>
</svg>
