<?xml version="1.0" encoding="UTF-8" standalone="no"?>
<!DOCTYPE svg PUBLIC "-//W3C//DTD SVG 1.1//EN"
 "http://www.w3.org/Graphics/SVG/1.1/DTD/svg11.dtd">
<!-- Generated by graphviz version 2.47.0 (20210316.0004)
 -->
<!-- Title: dependencies Pages: 1 -->
<svg width="2562pt" height="211pt"
 viewBox="0.00 0.00 2562.00 211.00" xmlns="http://www.w3.org/2000/svg" xmlns:xlink="http://www.w3.org/1999/xlink">
<g id="graph0" class="graph" transform="scale(1 1) rotate(0) translate(4 207)">
<title>dependencies</title>
<polygon fill="white" stroke="transparent" points="-4,4 -4,-207 2558,-207 2558,4 -4,4"/>
<text text-anchor="start" x="1256.01" y="-42.4" font-family="Times-12" font-weight="bold" font-size="14.00">Legend</text>
<polygon fill="#ffffb3" stroke="transparent" points="1043,-10 1043,-30 1063,-30 1063,-10 1043,-10"/>
<text text-anchor="start" x="1066.63" y="-15.4" font-family="Times-12" font-size="14.00"> &#160;Declarations</text>
<polygon fill="#8dd3c7" stroke="transparent" points="1156,-10 1156,-30 1176,-30 1176,-10 1156,-10"/>
<text text-anchor="start" x="1179.73" y="-15.4" font-family="Times-12" font-size="14.00"> &#160;Module</text>
<polygon fill="#80b1d3" stroke="transparent" points="1242,-10 1242,-30 1262,-30 1262,-10 1242,-10"/>
<text text-anchor="start" x="1265.78" y="-15.4" font-family="Times-12" font-size="14.00"> &#160;Bootstrap</text>
<polygon fill="#fdb462" stroke="transparent" points="1339,-10 1339,-30 1359,-30 1359,-10 1339,-10"/>
<text text-anchor="start" x="1362.67" y="-15.4" font-family="Times-12" font-size="14.00"> &#160;Providers</text>
<polygon fill="#fb8072" stroke="transparent" points="1435,-10 1435,-30 1455,-30 1455,-10 1435,-10"/>
<text text-anchor="start" x="1458.73" y="-15.4" font-family="Times-12" font-size="14.00"> &#160;Exports</text>
<g id="clust1" class="cluster">
<title>cluster_AppModule</title>
<polygon fill="none" stroke="black" stroke-dasharray="1,5" points="8,-70 8,-195 2546,-195 2546,-70 8,-70"/>
</g>
<g id="clust3" class="cluster">
<title>cluster_AppModule_imports</title>
<polygon fill="none" stroke="black" points="305,-78 305,-130 2538,-130 2538,-78 305,-78"/>
</g>
<g id="clust6" class="cluster">
<title>cluster_AppModule_providers</title>
<polygon fill="none" stroke="black" points="16,-78 16,-130 297,-130 297,-78 16,-78"/>
</g>
<!-- AttachmentModule -->
<g id="node1" class="node">
<title>AttachmentModule</title>
<polygon fill="#8dd3c7" stroke="black" points="2530.36,-122 2527.36,-126 2506.36,-126 2503.36,-122 2405.64,-122 2405.64,-86 2530.36,-86 2530.36,-122"/>
<text text-anchor="middle" x="2468" y="-99.8" font-family="Times,serif" font-size="14.00">AttachmentModule</text>
</g>
<!-- AppModule -->
<g id="node19" class="node">
<title>AppModule</title>
<polygon fill="#8dd3c7" stroke="black" points="1372.66,-187 1369.66,-191 1348.66,-191 1345.66,-187 1289.34,-187 1289.34,-151 1372.66,-151 1372.66,-187"/>
<text text-anchor="middle" x="1331" y="-164.8" font-family="Times,serif" font-size="14.00">AppModule</text>
</g>
<!-- AttachmentModule&#45;&gt;AppModule -->
<g id="edge1" class="edge">
<title>AttachmentModule&#45;&gt;AppModule</title>
<path fill="none" stroke="black" d="M2468,-122.15C2468,-145.76 2468,-184 2468,-184 2468,-184 1382.81,-184 1382.81,-184"/>
<polygon fill="black" stroke="black" points="1382.81,-180.5 1372.81,-184 1382.81,-187.5 1382.81,-180.5"/>
</g>
<!-- AuthModule -->
<g id="node2" class="node">
<title>AuthModule</title>
<polygon fill="#8dd3c7" stroke="black" points="2387.55,-122 2384.55,-126 2363.55,-126 2360.55,-122 2300.45,-122 2300.45,-86 2387.55,-86 2387.55,-122"/>
<text text-anchor="middle" x="2344" y="-99.8" font-family="Times,serif" font-size="14.00">AuthModule</text>
</g>
<!-- AuthModule&#45;&gt;AppModule -->
<g id="edge2" class="edge">
<title>AuthModule&#45;&gt;AppModule</title>
<path fill="none" stroke="black" d="M2344,-122.01C2344,-144.49 2344,-180 2344,-180 2344,-180 1382.92,-180 1382.92,-180"/>
<polygon fill="black" stroke="black" points="1382.92,-176.5 1372.92,-180 1382.92,-183.5 1382.92,-176.5"/>
</g>
<!-- ChapterModule -->
<g id="node3" class="node">
<title>ChapterModule</title>
<polygon fill="#8dd3c7" stroke="black" points="2281.87,-122 2278.87,-126 2257.87,-126 2254.87,-122 2178.13,-122 2178.13,-86 2281.87,-86 2281.87,-122"/>
<text text-anchor="middle" x="2230" y="-99.8" font-family="Times,serif" font-size="14.00">ChapterModule</text>
</g>
<!-- ChapterModule&#45;&gt;AppModule -->
<g id="edge3" class="edge">
<title>ChapterModule&#45;&gt;AppModule</title>
<path fill="none" stroke="black" d="M2230,-122.04C2230,-143.66 2230,-177 2230,-177 2230,-177 1382.86,-177 1382.86,-177"/>
<polygon fill="black" stroke="black" points="1382.86,-173.5 1372.86,-177 1382.86,-180.5 1382.86,-173.5"/>
</g>
<!-- ChatgptModule -->
<g id="node4" class="node">
<title>ChatgptModule</title>
<polygon fill="#8dd3c7" stroke="black" points="2159.88,-122 2156.88,-126 2135.88,-126 2132.88,-122 2056.12,-122 2056.12,-86 2159.88,-86 2159.88,-122"/>
<text text-anchor="middle" x="2108" y="-99.8" font-family="Times,serif" font-size="14.00">ChatgptModule</text>
</g>
<!-- ChatgptModule&#45;&gt;AppModule -->
<g id="edge4" class="edge">
<title>ChatgptModule&#45;&gt;AppModule</title>
<path fill="none" stroke="black" d="M2108,-122.13C2108,-142.57 2108,-173 2108,-173 2108,-173 1382.77,-173 1382.77,-173"/>
<polygon fill="black" stroke="black" points="1382.77,-169.5 1372.77,-173 1382.77,-176.5 1382.77,-169.5"/>
</g>
<!-- CodeModule -->
<g id="node5" class="node">
<title>CodeModule</title>
<polygon fill="#8dd3c7" stroke="black" points="2038.6,-122 2035.6,-126 2014.6,-126 2011.6,-122 1949.4,-122 1949.4,-86 2038.6,-86 2038.6,-122"/>
<text text-anchor="middle" x="1994" y="-99.8" font-family="Times,serif" font-size="14.00">CodeModule</text>
</g>
<!-- CodeModule&#45;&gt;AppModule -->
<g id="edge5" class="edge">
<title>CodeModule&#45;&gt;AppModule</title>
<path fill="none" stroke="black" d="M1994,-122.11C1994,-141.34 1994,-169 1994,-169 1994,-169 1382.72,-169 1382.72,-169"/>
<polygon fill="black" stroke="black" points="1382.72,-165.5 1372.72,-169 1382.72,-172.5 1382.72,-165.5"/>
</g>
<!-- CourseModule -->
<g id="node6" class="node">
<title>CourseModule</title>
<polygon fill="#8dd3c7" stroke="black" points="1931.71,-122 1928.71,-126 1907.71,-126 1904.71,-122 1832.29,-122 1832.29,-86 1931.71,-86 1931.71,-122"/>
<text text-anchor="middle" x="1882" y="-99.8" font-family="Times,serif" font-size="14.00">CourseModule</text>
</g>
<!-- CourseModule&#45;&gt;AppModule -->
<g id="edge6" class="edge">
<title>CourseModule&#45;&gt;AppModule</title>
<path fill="none" stroke="black" d="M1882,-122.27C1882,-140.56 1882,-166 1882,-166 1882,-166 1382.87,-166 1382.87,-166"/>
<polygon fill="black" stroke="black" points="1382.87,-162.5 1372.87,-166 1382.87,-169.5 1382.87,-162.5"/>
</g>
<!-- EvaluateModule -->
<g id="node7" class="node">
<title>EvaluateModule</title>
<polygon fill="#8dd3c7" stroke="black" points="1814.03,-122 1811.03,-126 1790.03,-126 1787.03,-122 1705.97,-122 1705.97,-86 1814.03,-86 1814.03,-122"/>
<text text-anchor="middle" x="1760" y="-99.8" font-family="Times,serif" font-size="14.00">EvaluateModule</text>
</g>
<!-- EvaluateModule&#45;&gt;AppModule -->
<g id="edge7" class="edge">
<title>EvaluateModule&#45;&gt;AppModule</title>
<path fill="none" stroke="black" d="M1760,-122.03C1760,-139.06 1760,-162 1760,-162 1760,-162 1382.92,-162 1382.92,-162"/>
<polygon fill="black" stroke="black" points="1382.92,-158.5 1372.92,-162 1382.92,-165.5 1382.92,-158.5"/>
</g>
<!-- ExerciseModule -->
<g id="node8" class="node">
<title>ExerciseModule</title>
<polygon fill="#8dd3c7" stroke="black" points="1687.74,-122 1684.74,-126 1663.74,-126 1660.74,-122 1580.26,-122 1580.26,-86 1687.74,-86 1687.74,-122"/>
<text text-anchor="middle" x="1634" y="-99.8" font-family="Times,serif" font-size="14.00">ExerciseModule</text>
</g>
<!-- ExerciseModule&#45;&gt;AppModule -->
<g id="edge8" class="edge">
<title>ExerciseModule&#45;&gt;AppModule</title>
<path fill="none" stroke="black" d="M1634,-122.01C1634,-138.05 1634,-159 1634,-159 1634,-159 1382.81,-159 1382.81,-159"/>
<polygon fill="black" stroke="black" points="1382.81,-155.5 1372.81,-159 1382.81,-162.5 1382.81,-155.5"/>
</g>
<!-- LessonModule -->
<g id="node9" class="node">
<title>LessonModule</title>
<polygon fill="#8dd3c7" stroke="black" points="1562.71,-122 1559.71,-126 1538.71,-126 1535.71,-122 1463.29,-122 1463.29,-86 1562.71,-86 1562.71,-122"/>
<text text-anchor="middle" x="1513" y="-99.8" font-family="Times,serif" font-size="14.00">LessonModule</text>
</g>
<!-- LessonModule&#45;&gt;AppModule -->
<g id="edge9" class="edge">
<title>LessonModule&#45;&gt;AppModule</title>
<path fill="none" stroke="black" d="M1513,-122.12C1513,-136.78 1513,-155 1513,-155 1513,-155 1382.75,-155 1382.75,-155"/>
<polygon fill="black" stroke="black" points="1382.75,-151.5 1372.75,-155 1382.75,-158.5 1382.75,-151.5"/>
</g>
<!-- MailingModule -->
<g id="node10" class="node">
<title>MailingModule</title>
<polygon fill="#8dd3c7" stroke="black" points="1444.88,-122 1441.88,-126 1420.88,-126 1417.88,-122 1341.12,-122 1341.12,-86 1444.88,-86 1444.88,-122"/>
<text text-anchor="middle" x="1393" y="-99.8" font-family="Times,serif" font-size="14.00">MailingModule</text>
</g>
<!-- MailingModule&#45;&gt;AppModule -->
<g id="edge10" class="edge">
<title>MailingModule&#45;&gt;AppModule</title>
<path fill="none" stroke="black" d="M1356.94,-122.11C1356.94,-122.11 1356.94,-140.99 1356.94,-140.99"/>
<polygon fill="black" stroke="black" points="1353.44,-140.99 1356.94,-150.99 1360.44,-140.99 1353.44,-140.99"/>
</g>
<!-- MessageModule -->
<g id="node11" class="node">
<title>MessageModule</title>
<polygon fill="#8dd3c7" stroke="black" points="1323.03,-122 1320.03,-126 1299.03,-126 1296.03,-122 1214.97,-122 1214.97,-86 1323.03,-86 1323.03,-122"/>
<text text-anchor="middle" x="1269" y="-99.8" font-family="Times,serif" font-size="14.00">MessageModule</text>
</g>
<!-- MessageModule&#45;&gt;AppModule -->
<g id="edge11" class="edge">
<title>MessageModule&#45;&gt;AppModule</title>
<path fill="none" stroke="black" d="M1306.22,-122.11C1306.22,-122.11 1306.22,-140.99 1306.22,-140.99"/>
<polygon fill="black" stroke="black" points="1302.72,-140.99 1306.22,-150.99 1309.72,-140.99 1302.72,-140.99"/>
</g>
<!-- QuizzModule -->
<g id="node12" class="node">
<title>QuizzModule</title>
<polygon fill="#8dd3c7" stroke="black" points="1196.48,-122 1193.48,-126 1172.48,-126 1169.48,-122 1103.52,-122 1103.52,-86 1196.48,-86 1196.48,-122"/>
<text text-anchor="middle" x="1150" y="-99.8" font-family="Times,serif" font-size="14.00">QuizzModule</text>
</g>
<!-- QuizzModule&#45;&gt;AppModule -->
<g id="edge12" class="edge">
<title>QuizzModule&#45;&gt;AppModule</title>
<path fill="none" stroke="black" d="M1150,-122.12C1150,-136.78 1150,-155 1150,-155 1150,-155 1279.02,-155 1279.02,-155"/>
<polygon fill="black" stroke="black" points="1279.02,-158.5 1289.02,-155 1279.02,-151.5 1279.02,-158.5"/>
</g>
<!-- RegisterInstructorModule -->
<g id="node13" class="node">
<title>RegisterInstructorModule</title>
<polygon fill="#8dd3c7" stroke="black" points="1085.12,-122 1082.12,-126 1061.12,-126 1058.12,-122 924.88,-122 924.88,-86 1085.12,-86 1085.12,-122"/>
<text text-anchor="middle" x="1005" y="-99.8" font-family="Times,serif" font-size="14.00">RegisterInstructorModule</text>
</g>
<!-- RegisterInstructorModule&#45;&gt;AppModule -->
<g id="edge13" class="edge">
<title>RegisterInstructorModule&#45;&gt;AppModule</title>
<path fill="none" stroke="black" d="M1005,-122.01C1005,-138.05 1005,-159 1005,-159 1005,-159 1279.05,-159 1279.05,-159"/>
<polygon fill="black" stroke="black" points="1279.05,-162.5 1289.05,-159 1279.05,-155.5 1279.05,-162.5"/>
</g>
<!-- ReviewModule -->
<g id="node14" class="node">
<title>ReviewModule</title>
<polygon fill="#8dd3c7" stroke="black" points="907.31,-122 904.31,-126 883.31,-126 880.31,-122 804.69,-122 804.69,-86 907.31,-86 907.31,-122"/>
<text text-anchor="middle" x="856" y="-99.8" font-family="Times,serif" font-size="14.00">ReviewModule</text>
</g>
<!-- ReviewModule&#45;&gt;AppModule -->
<g id="edge14" class="edge">
<title>ReviewModule&#45;&gt;AppModule</title>
<path fill="none" stroke="black" d="M856,-122.03C856,-139.06 856,-162 856,-162 856,-162 1279.26,-162 1279.26,-162"/>
<polygon fill="black" stroke="black" points="1279.26,-165.5 1289.26,-162 1279.26,-158.5 1279.26,-165.5"/>
</g>
<!-- ThreadModule -->
<g id="node15" class="node">
<title>ThreadModule</title>
<polygon fill="#8dd3c7" stroke="black" points="786.69,-122 783.69,-126 762.69,-126 759.69,-122 687.31,-122 687.31,-86 786.69,-86 786.69,-122"/>
<text text-anchor="middle" x="737" y="-99.8" font-family="Times,serif" font-size="14.00">ThreadModule</text>
</g>
<!-- ThreadModule&#45;&gt;AppModule -->
<g id="edge15" class="edge">
<title>ThreadModule&#45;&gt;AppModule</title>
<path fill="none" stroke="black" d="M737,-122.27C737,-140.56 737,-166 737,-166 737,-166 1279.23,-166 1279.23,-166"/>
<polygon fill="black" stroke="black" points="1279.23,-169.5 1289.23,-166 1279.23,-162.5 1279.23,-169.5"/>
</g>
<!-- UploadModule -->
<g id="node16" class="node">
<title>UploadModule</title>
<polygon fill="#8dd3c7" stroke="black" points="669.26,-122 666.26,-126 645.26,-126 642.26,-122 568.74,-122 568.74,-86 669.26,-86 669.26,-122"/>
<text text-anchor="middle" x="619" y="-99.8" font-family="Times,serif" font-size="14.00">UploadModule</text>
</g>
<!-- UploadModule&#45;&gt;AppModule -->
<g id="edge16" class="edge">
<title>UploadModule&#45;&gt;AppModule</title>
<path fill="none" stroke="black" d="M619,-122.11C619,-141.34 619,-169 619,-169 619,-169 1279.12,-169 1279.12,-169"/>
<polygon fill="black" stroke="black" points="1279.12,-172.5 1289.12,-169 1279.12,-165.5 1279.12,-172.5"/>
</g>
<!-- UserModule -->
<g id="node17" class="node">
<title>UserModule</title>
<polygon fill="#8dd3c7" stroke="black" points="550.98,-122 547.98,-126 526.98,-126 523.98,-122 465.02,-122 465.02,-86 550.98,-86 550.98,-122"/>
<text text-anchor="middle" x="508" y="-99.8" font-family="Times,serif" font-size="14.00">UserModule</text>
</g>
<!-- UserModule&#45;&gt;AppModule -->
<g id="edge17" class="edge">
<title>UserModule&#45;&gt;AppModule</title>
<path fill="none" stroke="black" d="M508,-122.13C508,-142.57 508,-173 508,-173 508,-173 1279.34,-173 1279.34,-173"/>
<polygon fill="black" stroke="black" points="1279.34,-176.5 1289.34,-173 1279.34,-169.5 1279.34,-176.5"/>
</g>
<!-- UserProgressModule -->
<g id="node18" class="node">
<title>UserProgressModule</title>
<polygon fill="#8dd3c7" stroke="black" points="447.18,-122 444.18,-126 423.18,-126 420.18,-122 312.82,-122 312.82,-86 447.18,-86 447.18,-122"/>
<text text-anchor="middle" x="380" y="-99.8" font-family="Times,serif" font-size="14.00">UserProgressModule</text>
</g>
<!-- UserProgressModule&#45;&gt;AppModule -->
<g id="edge18" class="edge">
<title>UserProgressModule&#45;&gt;AppModule</title>
<path fill="none" stroke="black" d="M380,-122.04C380,-143.66 380,-177 380,-177 380,-177 1279.22,-177 1279.22,-177"/>
<polygon fill="black" stroke="black" points="1279.22,-180.5 1289.22,-177 1279.22,-173.5 1279.22,-180.5"/>
</g>
<!-- AppService -->
<g id="node20" class="node">
<title>AppService</title>
<ellipse fill="#fdb462" stroke="black" cx="232" cy="-104" rx="56.74" ry="18"/>
<text text-anchor="middle" x="232" y="-99.8" font-family="Times,serif" font-size="14.00">AppService</text>
</g>
<!-- AppService&#45;&gt;AppModule -->
<g id="edge19" class="edge">
<title>AppService&#45;&gt;AppModule</title>
<path fill="none" stroke="black" d="M232,-122.01C232,-144.49 232,-180 232,-180 232,-180 1279.26,-180 1279.26,-180"/>
<polygon fill="black" stroke="black" points="1279.26,-183.5 1289.26,-180 1279.26,-176.5 1279.26,-183.5"/>
</g>
<!-- PrismaService -->
<g id="node21" class="node">
<title>PrismaService</title>
<ellipse fill="#fdb462" stroke="black" cx="91" cy="-104" rx="66.63" ry="18"/>
<text text-anchor="middle" x="91" y="-99.8" font-family="Times,serif" font-size="14.00">PrismaService</text>
</g>
<!-- PrismaService&#45;&gt;AppModule -->
<g id="edge20" class="edge">
<title>PrismaService&#45;&gt;AppModule</title>
<path fill="none" stroke="black" d="M91,-122.15C91,-145.76 91,-184 91,-184 91,-184 1279.03,-184 1279.03,-184"/>
<polygon fill="black" stroke="black" points="1279.03,-187.5 1289.03,-184 1279.03,-180.5 1279.03,-187.5"/>
</g>
</g>
</svg>
