<?xml version="1.0" encoding="UTF-8" standalone="no"?>
<!DOCTYPE svg PUBLIC "-//W3C//DTD SVG 1.1//EN"
 "http://www.w3.org/Graphics/SVG/1.1/DTD/svg11.dtd">
<!-- Generated by graphviz version 2.47.0 (20210316.0004)
 -->
<!-- Title: dependencies Pages: 1 -->
<svg width="504pt" height="211pt"
 viewBox="0.00 0.00 504.00 211.00" xmlns="http://www.w3.org/2000/svg" xmlns:xlink="http://www.w3.org/1999/xlink">
<g id="graph0" class="graph" transform="scale(1 1) rotate(0) translate(4 207)">
<title>dependencies</title>
<polygon fill="white" stroke="transparent" points="-4,4 -4,-207 500,-207 500,4 -4,4"/>
<text text-anchor="start" x="227.01" y="-42.4" font-family="Times-12" font-weight="bold" font-size="14.00">Legend</text>
<polygon fill="#ffffb3" stroke="transparent" points="14,-10 14,-30 34,-30 34,-10 14,-10"/>
<text text-anchor="start" x="37.63" y="-15.4" font-family="Times-12" font-size="14.00"> &#160;Declarations</text>
<polygon fill="#8dd3c7" stroke="transparent" points="127,-10 127,-30 147,-30 147,-10 127,-10"/>
<text text-anchor="start" x="150.73" y="-15.4" font-family="Times-12" font-size="14.00"> &#160;Module</text>
<polygon fill="#80b1d3" stroke="transparent" points="213,-10 213,-30 233,-30 233,-10 213,-10"/>
<text text-anchor="start" x="236.78" y="-15.4" font-family="Times-12" font-size="14.00"> &#160;Bootstrap</text>
<polygon fill="#fdb462" stroke="transparent" points="310,-10 310,-30 330,-30 330,-10 310,-10"/>
<text text-anchor="start" x="333.67" y="-15.4" font-family="Times-12" font-size="14.00"> &#160;Providers</text>
<polygon fill="#fb8072" stroke="transparent" points="406,-10 406,-30 426,-30 426,-10 406,-10"/>
<text text-anchor="start" x="429.73" y="-15.4" font-family="Times-12" font-size="14.00"> &#160;Exports</text>
<g id="clust1" class="cluster">
<title>cluster_ThreadModule</title>
<polygon fill="none" stroke="black" stroke-dasharray="1,5" points="11.5,-70 11.5,-195 484.5,-195 484.5,-70 11.5,-70"/>
</g>
<g id="clust6" class="cluster">
<title>cluster_ThreadModule_providers</title>
<polygon fill="none" stroke="black" points="19.5,-78 19.5,-130 476.5,-130 476.5,-78 19.5,-78"/>
</g>
<!-- PrismaService -->
<g id="node1" class="node">
<title>PrismaService</title>
<ellipse fill="#fdb462" stroke="black" cx="401.5" cy="-104" rx="66.63" ry="18"/>
<text text-anchor="middle" x="401.5" y="-99.8" font-family="Times,serif" font-size="14.00">PrismaService</text>
</g>
<!-- ThreadModule -->
<g id="node4" class="node">
<title>ThreadModule</title>
<polygon fill="#8dd3c7" stroke="black" points="299.19,-187 296.19,-191 275.19,-191 272.19,-187 199.81,-187 199.81,-151 299.19,-151 299.19,-187"/>
<text text-anchor="middle" x="249.5" y="-164.8" font-family="Times,serif" font-size="14.00">ThreadModule</text>
</g>
<!-- PrismaService&#45;&gt;ThreadModule -->
<g id="edge1" class="edge">
<title>PrismaService&#45;&gt;ThreadModule</title>
<path fill="none" stroke="black" d="M401.5,-122.11C401.5,-141.34 401.5,-169 401.5,-169 401.5,-169 309.27,-169 309.27,-169"/>
<polygon fill="black" stroke="black" points="309.27,-165.5 299.27,-169 309.27,-172.5 309.27,-165.5"/>
</g>
<!-- ThreadService -->
<g id="node2" class="node">
<title>ThreadService</title>
<ellipse fill="#fdb462" stroke="black" cx="249.5" cy="-104" rx="67.17" ry="18"/>
<text text-anchor="middle" x="249.5" y="-99.8" font-family="Times,serif" font-size="14.00">ThreadService</text>
</g>
<!-- ThreadService&#45;&gt;ThreadModule -->
<g id="edge2" class="edge">
<title>ThreadService&#45;&gt;ThreadModule</title>
<path fill="none" stroke="black" d="M249.5,-122.11C249.5,-122.11 249.5,-140.99 249.5,-140.99"/>
<polygon fill="black" stroke="black" points="246,-140.99 249.5,-150.99 253,-140.99 246,-140.99"/>
</g>
<!-- UploadService -->
<g id="node3" class="node">
<title>UploadService</title>
<ellipse fill="#fdb462" stroke="black" cx="95.5" cy="-104" rx="68.34" ry="18"/>
<text text-anchor="middle" x="95.5" y="-99.8" font-family="Times,serif" font-size="14.00">UploadService</text>
</g>
<!-- UploadService&#45;&gt;ThreadModule -->
<g id="edge3" class="edge">
<title>UploadService&#45;&gt;ThreadModule</title>
<path fill="none" stroke="black" d="M95.5,-122.11C95.5,-141.34 95.5,-169 95.5,-169 95.5,-169 189.5,-169 189.5,-169"/>
<polygon fill="black" stroke="black" points="189.5,-172.5 199.5,-169 189.5,-165.5 189.5,-172.5"/>
</g>
</g>
</svg>
