<?xml version="1.0" encoding="UTF-8" standalone="no"?>
<!DOCTYPE svg PUBLIC "-//W3C//DTD SVG 1.1//EN"
 "http://www.w3.org/Graphics/SVG/1.1/DTD/svg11.dtd">
<!-- Generated by graphviz version 2.47.0 (20210316.0004)
 -->
<!-- Title: dependencies Pages: 1 -->
<svg width="741pt" height="211pt"
 viewBox="0.00 0.00 741.00 211.00" xmlns="http://www.w3.org/2000/svg" xmlns:xlink="http://www.w3.org/1999/xlink">
<g id="graph0" class="graph" transform="scale(1 1) rotate(0) translate(4 207)">
<title>dependencies</title>
<polygon fill="white" stroke="transparent" points="-4,4 -4,-207 737,-207 737,4 -4,4"/>
<text text-anchor="start" x="345.51" y="-42.4" font-family="Times-12" font-weight="bold" font-size="14.00">Legend</text>
<polygon fill="#ffffb3" stroke="transparent" points="132.5,-10 132.5,-30 152.5,-30 152.5,-10 132.5,-10"/>
<text text-anchor="start" x="156.13" y="-15.4" font-family="Times-12" font-size="14.00"> &#160;Declarations</text>
<polygon fill="#8dd3c7" stroke="transparent" points="245.5,-10 245.5,-30 265.5,-30 265.5,-10 245.5,-10"/>
<text text-anchor="start" x="269.23" y="-15.4" font-family="Times-12" font-size="14.00"> &#160;Module</text>
<polygon fill="#80b1d3" stroke="transparent" points="331.5,-10 331.5,-30 351.5,-30 351.5,-10 331.5,-10"/>
<text text-anchor="start" x="355.28" y="-15.4" font-family="Times-12" font-size="14.00"> &#160;Bootstrap</text>
<polygon fill="#fdb462" stroke="transparent" points="428.5,-10 428.5,-30 448.5,-30 448.5,-10 428.5,-10"/>
<text text-anchor="start" x="452.17" y="-15.4" font-family="Times-12" font-size="14.00"> &#160;Providers</text>
<polygon fill="#fb8072" stroke="transparent" points="524.5,-10 524.5,-30 544.5,-30 544.5,-10 524.5,-10"/>
<text text-anchor="start" x="548.23" y="-15.4" font-family="Times-12" font-size="14.00"> &#160;Exports</text>
<g id="clust1" class="cluster">
<title>cluster_RegisterInstructorModule</title>
<polygon fill="none" stroke="black" stroke-dasharray="1,5" points="8,-70 8,-195 725,-195 725,-70 8,-70"/>
</g>
<g id="clust6" class="cluster">
<title>cluster_RegisterInstructorModule_providers</title>
<polygon fill="none" stroke="black" points="16,-78 16,-130 717,-130 717,-78 16,-78"/>
</g>
<!-- MailingService -->
<g id="node1" class="node">
<title>MailingService</title>
<ellipse fill="#fdb462" stroke="black" cx="638" cy="-104" rx="70.64" ry="18"/>
<text text-anchor="middle" x="638" y="-99.8" font-family="Times,serif" font-size="14.00">MailingService</text>
</g>
<!-- RegisterInstructorModule -->
<g id="node5" class="node">
<title>RegisterInstructorModule</title>
<polygon fill="#8dd3c7" stroke="black" points="465.12,-187 462.12,-191 441.12,-191 438.12,-187 304.88,-187 304.88,-151 465.12,-151 465.12,-187"/>
<text text-anchor="middle" x="385" y="-164.8" font-family="Times,serif" font-size="14.00">RegisterInstructorModule</text>
</g>
<!-- MailingService&#45;&gt;RegisterInstructorModule -->
<g id="edge1" class="edge">
<title>MailingService&#45;&gt;RegisterInstructorModule</title>
<path fill="none" stroke="black" d="M638,-122.11C638,-141.34 638,-169 638,-169 638,-169 475.4,-169 475.4,-169"/>
<polygon fill="black" stroke="black" points="475.4,-165.5 465.4,-169 475.4,-172.5 475.4,-165.5"/>
</g>
<!-- PrismaService -->
<g id="node2" class="node">
<title>PrismaService</title>
<ellipse fill="#fdb462" stroke="black" cx="483" cy="-104" rx="66.63" ry="18"/>
<text text-anchor="middle" x="483" y="-99.8" font-family="Times,serif" font-size="14.00">PrismaService</text>
</g>
<!-- PrismaService&#45;&gt;RegisterInstructorModule -->
<g id="edge2" class="edge">
<title>PrismaService&#45;&gt;RegisterInstructorModule</title>
<path fill="none" stroke="black" d="M440.75,-118.1C440.75,-118.1 440.75,-140.72 440.75,-140.72"/>
<polygon fill="black" stroke="black" points="437.25,-140.72 440.75,-150.72 444.25,-140.72 437.25,-140.72"/>
</g>
<!-- RegisterInstructorService -->
<g id="node3" class="node">
<title>RegisterInstructorService</title>
<ellipse fill="#fdb462" stroke="black" cx="288" cy="-104" rx="109.92" ry="18"/>
<text text-anchor="middle" x="288" y="-99.8" font-family="Times,serif" font-size="14.00">RegisterInstructorService</text>
</g>
<!-- RegisterInstructorService&#45;&gt;RegisterInstructorModule -->
<g id="edge3" class="edge">
<title>RegisterInstructorService&#45;&gt;RegisterInstructorModule</title>
<path fill="none" stroke="black" d="M351.2,-118.75C351.2,-118.75 351.2,-140.59 351.2,-140.59"/>
<polygon fill="black" stroke="black" points="347.7,-140.59 351.2,-150.59 354.7,-140.59 347.7,-140.59"/>
</g>
<!-- UploadService -->
<g id="node4" class="node">
<title>UploadService</title>
<ellipse fill="#fdb462" stroke="black" cx="92" cy="-104" rx="68.34" ry="18"/>
<text text-anchor="middle" x="92" y="-99.8" font-family="Times,serif" font-size="14.00">UploadService</text>
</g>
<!-- UploadService&#45;&gt;RegisterInstructorModule -->
<g id="edge4" class="edge">
<title>UploadService&#45;&gt;RegisterInstructorModule</title>
<path fill="none" stroke="black" d="M92,-122.11C92,-141.34 92,-169 92,-169 92,-169 294.55,-169 294.55,-169"/>
<polygon fill="black" stroke="black" points="294.55,-172.5 304.55,-169 294.55,-165.5 294.55,-172.5"/>
</g>
</g>
</svg>
