<?xml version="1.0" encoding="UTF-8" standalone="no"?>
<!DOCTYPE svg PUBLIC "-//W3C//DTD SVG 1.1//EN"
 "http://www.w3.org/Graphics/SVG/1.1/DTD/svg11.dtd">
<!-- Generated by graphviz version 2.47.0 (20210316.0004)
 -->
<!-- Title: dependencies Pages: 1 -->
<svg width="504pt" height="211pt"
 viewBox="0.00 0.00 504.00 211.00" xmlns="http://www.w3.org/2000/svg" xmlns:xlink="http://www.w3.org/1999/xlink">
<g id="graph0" class="graph" transform="scale(1 1) rotate(0) translate(4 207)">
<title>dependencies</title>
<polygon fill="white" stroke="transparent" points="-4,4 -4,-207 500,-207 500,4 -4,4"/>
<text text-anchor="start" x="227.01" y="-42.4" font-family="Times-12" font-weight="bold" font-size="14.00">Legend</text>
<polygon fill="#ffffb3" stroke="transparent" points="14,-10 14,-30 34,-30 34,-10 14,-10"/>
<text text-anchor="start" x="37.63" y="-15.4" font-family="Times-12" font-size="14.00"> &#160;Declarations</text>
<polygon fill="#8dd3c7" stroke="transparent" points="127,-10 127,-30 147,-30 147,-10 127,-10"/>
<text text-anchor="start" x="150.73" y="-15.4" font-family="Times-12" font-size="14.00"> &#160;Module</text>
<polygon fill="#80b1d3" stroke="transparent" points="213,-10 213,-30 233,-30 233,-10 213,-10"/>
<text text-anchor="start" x="236.78" y="-15.4" font-family="Times-12" font-size="14.00"> &#160;Bootstrap</text>
<polygon fill="#fdb462" stroke="transparent" points="310,-10 310,-30 330,-30 330,-10 310,-10"/>
<text text-anchor="start" x="333.67" y="-15.4" font-family="Times-12" font-size="14.00"> &#160;Providers</text>
<polygon fill="#fb8072" stroke="transparent" points="406,-10 406,-30 426,-30 426,-10 406,-10"/>
<text text-anchor="start" x="429.73" y="-15.4" font-family="Times-12" font-size="14.00"> &#160;Exports</text>
<g id="clust1" class="cluster">
<title>cluster_ExerciseModule</title>
<polygon fill="none" stroke="black" stroke-dasharray="1,5" points="83,-70 83,-195 413,-195 413,-70 83,-70"/>
</g>
<g id="clust6" class="cluster">
<title>cluster_ExerciseModule_providers</title>
<polygon fill="none" stroke="black" points="91,-78 91,-130 405,-130 405,-78 91,-78"/>
</g>
<!-- ExerciseService -->
<g id="node1" class="node">
<title>ExerciseService</title>
<ellipse fill="#fdb462" stroke="black" cx="324" cy="-104" rx="73.47" ry="18"/>
<text text-anchor="middle" x="324" y="-99.8" font-family="Times,serif" font-size="14.00">ExerciseService</text>
</g>
<!-- ExerciseModule -->
<g id="node3" class="node">
<title>ExerciseModule</title>
<polygon fill="#8dd3c7" stroke="black" points="298.74,-187 295.74,-191 274.74,-191 271.74,-187 191.26,-187 191.26,-151 298.74,-151 298.74,-187"/>
<text text-anchor="middle" x="245" y="-164.8" font-family="Times,serif" font-size="14.00">ExerciseModule</text>
</g>
<!-- ExerciseService&#45;&gt;ExerciseModule -->
<g id="edge1" class="edge">
<title>ExerciseService&#45;&gt;ExerciseModule</title>
<path fill="none" stroke="black" d="M274.82,-117.47C274.82,-117.47 274.82,-140.86 274.82,-140.86"/>
<polygon fill="black" stroke="black" points="271.32,-140.86 274.82,-150.86 278.32,-140.86 271.32,-140.86"/>
</g>
<!-- PrismaService -->
<g id="node2" class="node">
<title>PrismaService</title>
<ellipse fill="#fdb462" stroke="black" cx="166" cy="-104" rx="66.63" ry="18"/>
<text text-anchor="middle" x="166" y="-99.8" font-family="Times,serif" font-size="14.00">PrismaService</text>
</g>
<!-- PrismaService&#45;&gt;ExerciseModule -->
<g id="edge2" class="edge">
<title>PrismaService&#45;&gt;ExerciseModule</title>
<path fill="none" stroke="black" d="M211.97,-117.15C211.97,-117.15 211.97,-140.69 211.97,-140.69"/>
<polygon fill="black" stroke="black" points="208.47,-140.69 211.97,-150.69 215.47,-140.69 208.47,-140.69"/>
</g>
</g>
</svg>
