<?xml version="1.0" encoding="UTF-8" standalone="no"?>
<!DOCTYPE svg PUBLIC "-//W3C//DTD SVG 1.1//EN"
 "http://www.w3.org/Graphics/SVG/1.1/DTD/svg11.dtd">
<!-- Generated by graphviz version 2.47.0 (20210316.0004)
 -->
<!-- Title: dependencies Pages: 1 -->
<svg width="5533pt" height="279pt"
 viewBox="0.00 0.00 5533.00 279.00" xmlns="http://www.w3.org/2000/svg" xmlns:xlink="http://www.w3.org/1999/xlink">
<g id="graph0" class="graph" transform="scale(1 1) rotate(0) translate(4 275)">
<title>dependencies</title>
<polygon fill="white" stroke="transparent" points="-4,4 -4,-275 5529,-275 5529,4 -4,4"/>
<text text-anchor="start" x="2741.51" y="-42.4" font-family="Times-12" font-weight="bold" font-size="14.00">Legend</text>
<polygon fill="#ffffb3" stroke="transparent" points="2528.5,-10 2528.5,-30 2548.5,-30 2548.5,-10 2528.5,-10"/>
<text text-anchor="start" x="2552.13" y="-15.4" font-family="Times-12" font-size="14.00"> &#160;Declarations</text>
<polygon fill="#8dd3c7" stroke="transparent" points="2641.5,-10 2641.5,-30 2661.5,-30 2661.5,-10 2641.5,-10"/>
<text text-anchor="start" x="2665.23" y="-15.4" font-family="Times-12" font-size="14.00"> &#160;Module</text>
<polygon fill="#80b1d3" stroke="transparent" points="2727.5,-10 2727.5,-30 2747.5,-30 2747.5,-10 2727.5,-10"/>
<text text-anchor="start" x="2751.28" y="-15.4" font-family="Times-12" font-size="14.00"> &#160;Bootstrap</text>
<polygon fill="#fdb462" stroke="transparent" points="2824.5,-10 2824.5,-30 2844.5,-30 2844.5,-10 2824.5,-10"/>
<text text-anchor="start" x="2848.17" y="-15.4" font-family="Times-12" font-size="14.00"> &#160;Providers</text>
<polygon fill="#fb8072" stroke="transparent" points="2920.5,-10 2920.5,-30 2940.5,-30 2940.5,-10 2920.5,-10"/>
<text text-anchor="start" x="2944.23" y="-15.4" font-family="Times-12" font-size="14.00"> &#160;Exports</text>
<g id="clust1" class="cluster">
<title>cluster_AppModule</title>
<polygon fill="none" stroke="black" stroke-dasharray="1,5" points="8,-70 8,-263 2289,-263 2289,-70 8,-70"/>
</g>
<g id="clust3" class="cluster">
<title>cluster_AppModule_imports</title>
<polygon fill="none" stroke="black" points="48,-146 48,-198 2281,-198 2281,-146 48,-146"/>
</g>
<g id="clust6" class="cluster">
<title>cluster_AppModule_providers</title>
<polygon fill="none" stroke="black" points="741,-78 741,-130 1022,-130 1022,-78 741,-78"/>
</g>
<g id="clust7" class="cluster">
<title>cluster_AttachmentModule</title>
<polygon fill="none" stroke="black" stroke-dasharray="1,5" points="2297,-70 2297,-138 2653,-138 2653,-70 2297,-70"/>
</g>
<g id="clust12" class="cluster">
<title>cluster_AttachmentModule_providers</title>
<polygon fill="none" stroke="black" points="2305,-78 2305,-130 2645,-130 2645,-78 2305,-78"/>
</g>
<g id="clust13" class="cluster">
<title>cluster_AuthModule</title>
<polygon fill="none" stroke="black" stroke-dasharray="1,5" points="2661,-70 2661,-138 2971,-138 2971,-70 2661,-70"/>
</g>
<g id="clust18" class="cluster">
<title>cluster_AuthModule_providers</title>
<polygon fill="none" stroke="black" points="2669,-78 2669,-130 2963,-130 2963,-78 2669,-78"/>
</g>
<g id="clust19" class="cluster">
<title>cluster_ChapterModule</title>
<polygon fill="none" stroke="black" stroke-dasharray="1,5" points="2979,-70 2979,-138 3153,-138 3153,-70 2979,-70"/>
</g>
<g id="clust24" class="cluster">
<title>cluster_ChapterModule_providers</title>
<polygon fill="none" stroke="black" points="2987,-78 2987,-130 3145,-130 3145,-78 2987,-78"/>
</g>
<g id="clust25" class="cluster">
<title>cluster_ChatgptModule</title>
<polygon fill="none" stroke="black" stroke-dasharray="1,5" points="3161,-70 3161,-138 3479,-138 3479,-70 3161,-70"/>
</g>
<g id="clust30" class="cluster">
<title>cluster_ChatgptModule_providers</title>
<polygon fill="none" stroke="black" points="3169,-78 3169,-130 3471,-130 3471,-78 3169,-78"/>
</g>
<g id="clust31" class="cluster">
<title>cluster_CodeModule</title>
<polygon fill="none" stroke="black" stroke-dasharray="1,5" points="3487,-70 3487,-138 3805,-138 3805,-70 3487,-70"/>
</g>
<g id="clust36" class="cluster">
<title>cluster_CodeModule_providers</title>
<polygon fill="none" stroke="black" points="3495,-78 3495,-130 3797,-130 3797,-78 3495,-78"/>
</g>
<g id="clust37" class="cluster">
<title>cluster_CourseModule</title>
<polygon fill="none" stroke="black" stroke-dasharray="1,5" points="3813,-70 3813,-138 3979,-138 3979,-70 3813,-70"/>
</g>
<g id="clust42" class="cluster">
<title>cluster_CourseModule_providers</title>
<polygon fill="none" stroke="black" points="3821,-78 3821,-130 3971,-130 3971,-78 3821,-78"/>
</g>
<g id="clust49" class="cluster">
<title>cluster_ExerciseModule</title>
<polygon fill="none" stroke="black" stroke-dasharray="1,5" points="3987,-70 3987,-138 4165,-138 4165,-70 3987,-70"/>
</g>
<g id="clust54" class="cluster">
<title>cluster_ExerciseModule_providers</title>
<polygon fill="none" stroke="black" points="3995,-78 3995,-130 4157,-130 4157,-78 3995,-78"/>
</g>
<g id="clust55" class="cluster">
<title>cluster_LessonModule</title>
<polygon fill="none" stroke="black" stroke-dasharray="1,5" points="4173,-70 4173,-138 4339,-138 4339,-70 4173,-70"/>
</g>
<g id="clust60" class="cluster">
<title>cluster_LessonModule_providers</title>
<polygon fill="none" stroke="black" points="4181,-78 4181,-130 4331,-130 4331,-78 4181,-78"/>
</g>
<g id="clust67" class="cluster">
<title>cluster_MessageModule</title>
<polygon fill="none" stroke="black" stroke-dasharray="1,5" points="4347,-70 4347,-138 4527,-138 4527,-70 4347,-70"/>
</g>
<g id="clust72" class="cluster">
<title>cluster_MessageModule_providers</title>
<polygon fill="none" stroke="black" points="4355,-78 4355,-130 4519,-130 4519,-78 4355,-78"/>
</g>
<g id="clust79" class="cluster">
<title>cluster_RegisterInstructorModule</title>
<polygon fill="none" stroke="black" stroke-dasharray="1,5" points="4535,-70 4535,-138 4787,-138 4787,-70 4535,-70"/>
</g>
<g id="clust84" class="cluster">
<title>cluster_RegisterInstructorModule_providers</title>
<polygon fill="none" stroke="black" points="4543,-78 4543,-130 4779,-130 4779,-78 4543,-78"/>
</g>
<g id="clust85" class="cluster">
<title>cluster_ReviewModule</title>
<polygon fill="none" stroke="black" stroke-dasharray="1,5" points="4795,-70 4795,-138 4965,-138 4965,-70 4795,-70"/>
</g>
<g id="clust90" class="cluster">
<title>cluster_ReviewModule_providers</title>
<polygon fill="none" stroke="black" points="4803,-78 4803,-130 4957,-130 4957,-78 4803,-78"/>
</g>
<g id="clust91" class="cluster">
<title>cluster_ThreadModule</title>
<polygon fill="none" stroke="black" stroke-dasharray="1,5" points="4973,-70 4973,-138 5139,-138 5139,-70 4973,-70"/>
</g>
<g id="clust96" class="cluster">
<title>cluster_ThreadModule_providers</title>
<polygon fill="none" stroke="black" points="4981,-78 4981,-130 5131,-130 5131,-78 4981,-78"/>
</g>
<g id="clust103" class="cluster">
<title>cluster_UserModule</title>
<polygon fill="none" stroke="black" stroke-dasharray="1,5" points="5147,-70 5147,-138 5295,-138 5295,-70 5147,-70"/>
</g>
<g id="clust108" class="cluster">
<title>cluster_UserModule_providers</title>
<polygon fill="none" stroke="black" points="5155,-78 5155,-130 5287,-130 5287,-78 5155,-78"/>
</g>
<g id="clust109" class="cluster">
<title>cluster_UserProgressModule</title>
<polygon fill="none" stroke="black" stroke-dasharray="1,5" points="5303,-70 5303,-138 5517,-138 5517,-70 5303,-70"/>
</g>
<g id="clust114" class="cluster">
<title>cluster_UserProgressModule_providers</title>
<polygon fill="none" stroke="black" points="5311,-78 5311,-130 5509,-130 5509,-78 5311,-78"/>
</g>
<!-- AttachmentModule -->
<g id="node1" class="node">
<title>AttachmentModule</title>
<polygon fill="#8dd3c7" stroke="black" points="180.36,-190 177.36,-194 156.36,-194 153.36,-190 55.64,-190 55.64,-154 180.36,-154 180.36,-190"/>
<text text-anchor="middle" x="118" y="-167.8" font-family="Times,serif" font-size="14.00">AttachmentModule</text>
</g>
<!-- AppModule -->
<g id="node19" class="node">
<title>AppModule</title>
<polygon fill="#8dd3c7" stroke="black" points="1048.66,-255 1045.66,-259 1024.66,-259 1021.66,-255 965.34,-255 965.34,-219 1048.66,-219 1048.66,-255"/>
<text text-anchor="middle" x="1007" y="-232.8" font-family="Times,serif" font-size="14.00">AppModule</text>
</g>
<!-- AttachmentModule&#45;&gt;AppModule -->
<g id="edge1" class="edge">
<title>AttachmentModule&#45;&gt;AppModule</title>
<path fill="none" stroke="black" d="M149.22,-190.32C149.22,-213.66 149.22,-251 149.22,-251 149.22,-251 955.34,-251 955.34,-251"/>
<polygon fill="black" stroke="black" points="955.34,-254.5 965.34,-251 955.34,-247.5 955.34,-254.5"/>
</g>
<!-- AuthModule -->
<g id="node2" class="node">
<title>AuthModule</title>
<polygon fill="#8dd3c7" stroke="black" points="285.55,-190 282.55,-194 261.55,-194 258.55,-190 198.45,-190 198.45,-154 285.55,-154 285.55,-190"/>
<text text-anchor="middle" x="242" y="-167.8" font-family="Times,serif" font-size="14.00">AuthModule</text>
</g>
<!-- AuthModule&#45;&gt;AppModule -->
<g id="edge2" class="edge">
<title>AuthModule&#45;&gt;AppModule</title>
<path fill="none" stroke="black" d="M242,-190.16C242,-212.35 242,-247 242,-247 242,-247 955.33,-247 955.33,-247"/>
<polygon fill="black" stroke="black" points="955.33,-250.5 965.33,-247 955.33,-243.5 955.33,-250.5"/>
</g>
<!-- ChapterModule -->
<g id="node3" class="node">
<title>ChapterModule</title>
<polygon fill="#8dd3c7" stroke="black" points="407.87,-190 404.87,-194 383.87,-194 380.87,-190 304.13,-190 304.13,-154 407.87,-154 407.87,-190"/>
<text text-anchor="middle" x="356" y="-167.8" font-family="Times,serif" font-size="14.00">ChapterModule</text>
</g>
<!-- ChapterModule&#45;&gt;AppModule -->
<g id="edge3" class="edge">
<title>ChapterModule&#45;&gt;AppModule</title>
<path fill="none" stroke="black" d="M356,-190.28C356,-211.32 356,-243 356,-243 356,-243 955.29,-243 955.29,-243"/>
<polygon fill="black" stroke="black" points="955.29,-246.5 965.29,-243 955.29,-239.5 955.29,-246.5"/>
</g>
<!-- ChatgptModule -->
<g id="node4" class="node">
<title>ChatgptModule</title>
<polygon fill="#8dd3c7" stroke="black" points="647.88,-190 644.88,-194 623.88,-194 620.88,-190 544.12,-190 544.12,-154 647.88,-154 647.88,-190"/>
<text text-anchor="middle" x="596" y="-167.8" font-family="Times,serif" font-size="14.00">ChatgptModule</text>
</g>
<!-- ChatgptModule&#45;&gt;AppModule -->
<g id="edge4" class="edge">
<title>ChatgptModule&#45;&gt;AppModule</title>
<path fill="none" stroke="black" d="M596,-190.22C596,-208.83 596,-235 596,-235 596,-235 955.33,-235 955.33,-235"/>
<polygon fill="black" stroke="black" points="955.33,-238.5 965.33,-235 955.33,-231.5 955.33,-238.5"/>
</g>
<!-- CodeModule -->
<g id="node5" class="node">
<title>CodeModule</title>
<polygon fill="#8dd3c7" stroke="black" points="2000.6,-190 1997.6,-194 1976.6,-194 1973.6,-190 1911.4,-190 1911.4,-154 2000.6,-154 2000.6,-190"/>
<text text-anchor="middle" x="1956" y="-167.8" font-family="Times,serif" font-size="14.00">CodeModule</text>
</g>
<!-- CodeModule&#45;&gt;AppModule -->
<g id="edge5" class="edge">
<title>CodeModule&#45;&gt;AppModule</title>
<path fill="none" stroke="black" d="M1956,-190.04C1956,-211.66 1956,-245 1956,-245 1956,-245 1058.69,-245 1058.69,-245"/>
<polygon fill="black" stroke="black" points="1058.69,-241.5 1048.69,-245 1058.69,-248.5 1058.69,-241.5"/>
</g>
<!-- CourseModule -->
<g id="node6" class="node">
<title>CourseModule</title>
<polygon fill="#8dd3c7" stroke="black" points="875.71,-190 872.71,-194 851.71,-194 848.71,-190 776.29,-190 776.29,-154 875.71,-154 875.71,-190"/>
<text text-anchor="middle" x="826" y="-167.8" font-family="Times,serif" font-size="14.00">CourseModule</text>
</g>
<!-- CourseModule&#45;&gt;AppModule -->
<g id="edge6" class="edge">
<title>CourseModule&#45;&gt;AppModule</title>
<path fill="none" stroke="black" d="M826,-190.12C826,-204.78 826,-223 826,-223 826,-223 955.02,-223 955.02,-223"/>
<polygon fill="black" stroke="black" points="955.02,-226.5 965.02,-223 955.02,-219.5 955.02,-226.5"/>
</g>
<!-- EvaluateModule -->
<g id="node7" class="node">
<title>EvaluateModule</title>
<polygon fill="#8dd3c7" stroke="black" points="1893.03,-190 1890.03,-194 1869.03,-194 1866.03,-190 1784.97,-190 1784.97,-154 1893.03,-154 1893.03,-190"/>
<text text-anchor="middle" x="1839" y="-167.8" font-family="Times,serif" font-size="14.00">EvaluateModule</text>
</g>
<!-- EvaluateModule&#45;&gt;AppModule -->
<g id="edge7" class="edge">
<title>EvaluateModule&#45;&gt;AppModule</title>
<path fill="none" stroke="black" d="M1839,-190.13C1839,-210.57 1839,-241 1839,-241 1839,-241 1058.83,-241 1058.83,-241"/>
<polygon fill="black" stroke="black" points="1058.83,-237.5 1048.83,-241 1058.83,-244.5 1058.83,-237.5"/>
</g>
<!-- ExerciseModule -->
<g id="node8" class="node">
<title>ExerciseModule</title>
<polygon fill="#8dd3c7" stroke="black" points="1000.74,-190 997.74,-194 976.74,-194 973.74,-190 893.26,-190 893.26,-154 1000.74,-154 1000.74,-190"/>
<text text-anchor="middle" x="947" y="-167.8" font-family="Times,serif" font-size="14.00">ExerciseModule</text>
</g>
<!-- ExerciseModule&#45;&gt;AppModule -->
<g id="edge8" class="edge">
<title>ExerciseModule&#45;&gt;AppModule</title>
<path fill="none" stroke="black" d="M983.02,-190.11C983.02,-190.11 983.02,-208.99 983.02,-208.99"/>
<polygon fill="black" stroke="black" points="979.52,-208.99 983.02,-218.99 986.52,-208.99 979.52,-208.99"/>
</g>
<!-- LessonModule -->
<g id="node9" class="node">
<title>LessonModule</title>
<polygon fill="#8dd3c7" stroke="black" points="1117.71,-190 1114.71,-194 1093.71,-194 1090.71,-190 1018.29,-190 1018.29,-154 1117.71,-154 1117.71,-190"/>
<text text-anchor="middle" x="1068" y="-167.8" font-family="Times,serif" font-size="14.00">LessonModule</text>
</g>
<!-- LessonModule&#45;&gt;AppModule -->
<g id="edge9" class="edge">
<title>LessonModule&#45;&gt;AppModule</title>
<path fill="none" stroke="black" d="M1033.61,-190.11C1033.61,-190.11 1033.61,-208.99 1033.61,-208.99"/>
<polygon fill="black" stroke="black" points="1030.11,-208.99 1033.61,-218.99 1037.11,-208.99 1030.11,-208.99"/>
</g>
<!-- MailingModule -->
<g id="node10" class="node">
<title>MailingModule</title>
<polygon fill="#8dd3c7" stroke="black" points="1766.88,-190 1763.88,-194 1742.88,-194 1739.88,-190 1663.12,-190 1663.12,-154 1766.88,-154 1766.88,-190"/>
<text text-anchor="middle" x="1715" y="-167.8" font-family="Times,serif" font-size="14.00">MailingModule</text>
</g>
<!-- MailingModule&#45;&gt;AppModule -->
<g id="edge10" class="edge">
<title>MailingModule&#45;&gt;AppModule</title>
<path fill="none" stroke="black" d="M1715,-190.11C1715,-209.34 1715,-237 1715,-237 1715,-237 1058.91,-237 1058.91,-237"/>
<polygon fill="black" stroke="black" points="1058.91,-233.5 1048.91,-237 1058.91,-240.5 1058.91,-233.5"/>
</g>
<!-- MessageModule -->
<g id="node11" class="node">
<title>MessageModule</title>
<polygon fill="#8dd3c7" stroke="black" points="1244.03,-190 1241.03,-194 1220.03,-194 1217.03,-190 1135.97,-190 1135.97,-154 1244.03,-154 1244.03,-190"/>
<text text-anchor="middle" x="1190" y="-167.8" font-family="Times,serif" font-size="14.00">MessageModule</text>
</g>
<!-- MessageModule&#45;&gt;AppModule -->
<g id="edge11" class="edge">
<title>MessageModule&#45;&gt;AppModule</title>
<path fill="none" stroke="black" d="M1208.09,-190.12C1208.09,-204.78 1208.09,-223 1208.09,-223 1208.09,-223 1058.67,-223 1058.67,-223"/>
<polygon fill="black" stroke="black" points="1058.67,-219.5 1048.67,-223 1058.67,-226.5 1058.67,-219.5"/>
</g>
<!-- QuizzModule -->
<g id="node12" class="node">
<title>QuizzModule</title>
<polygon fill="#8dd3c7" stroke="black" points="758.48,-190 755.48,-194 734.48,-194 731.48,-190 665.52,-190 665.52,-154 758.48,-154 758.48,-190"/>
<text text-anchor="middle" x="712" y="-167.8" font-family="Times,serif" font-size="14.00">QuizzModule</text>
</g>
<!-- QuizzModule&#45;&gt;AppModule -->
<g id="edge12" class="edge">
<title>QuizzModule&#45;&gt;AppModule</title>
<path fill="none" stroke="black" d="M712,-190.02C712,-207.37 712,-231 712,-231 712,-231 955.05,-231 955.05,-231"/>
<polygon fill="black" stroke="black" points="955.05,-234.5 965.05,-231 955.05,-227.5 955.05,-234.5"/>
</g>
<!-- RegisterInstructorModule -->
<g id="node13" class="node">
<title>RegisterInstructorModule</title>
<polygon fill="#8dd3c7" stroke="black" points="1423.12,-190 1420.12,-194 1399.12,-194 1396.12,-190 1262.88,-190 1262.88,-154 1423.12,-154 1423.12,-190"/>
<text text-anchor="middle" x="1343" y="-167.8" font-family="Times,serif" font-size="14.00">RegisterInstructorModule</text>
</g>
<!-- RegisterInstructorModule&#45;&gt;AppModule -->
<g id="edge13" class="edge">
<title>RegisterInstructorModule&#45;&gt;AppModule</title>
<path fill="none" stroke="black" d="M1369.77,-190.01C1369.77,-206.05 1369.77,-227 1369.77,-227 1369.77,-227 1058.97,-227 1058.97,-227"/>
<polygon fill="black" stroke="black" points="1058.97,-223.5 1048.97,-227 1058.97,-230.5 1058.97,-223.5"/>
</g>
<!-- ReviewModule -->
<g id="node14" class="node">
<title>ReviewModule</title>
<polygon fill="#8dd3c7" stroke="black" points="2121.31,-190 2118.31,-194 2097.31,-194 2094.31,-190 2018.69,-190 2018.69,-154 2121.31,-154 2121.31,-190"/>
<text text-anchor="middle" x="2070" y="-167.8" font-family="Times,serif" font-size="14.00">ReviewModule</text>
</g>
<!-- ReviewModule&#45;&gt;AppModule -->
<g id="edge14" class="edge">
<title>ReviewModule&#45;&gt;AppModule</title>
<path fill="none" stroke="black" d="M2087.05,-190.01C2087.05,-212.49 2087.05,-248 2087.05,-248 2087.05,-248 1058.68,-248 1058.68,-248"/>
<polygon fill="black" stroke="black" points="1058.68,-244.5 1048.68,-248 1058.68,-251.5 1058.68,-244.5"/>
</g>
<!-- ThreadModule -->
<g id="node15" class="node">
<title>ThreadModule</title>
<polygon fill="#8dd3c7" stroke="black" points="1540.69,-190 1537.69,-194 1516.69,-194 1513.69,-190 1441.31,-190 1441.31,-154 1540.69,-154 1540.69,-190"/>
<text text-anchor="middle" x="1491" y="-167.8" font-family="Times,serif" font-size="14.00">ThreadModule</text>
</g>
<!-- ThreadModule&#45;&gt;AppModule -->
<g id="edge15" class="edge">
<title>ThreadModule&#45;&gt;AppModule</title>
<path fill="none" stroke="black" d="M1507.53,-190.03C1507.53,-207.06 1507.53,-230 1507.53,-230 1507.53,-230 1058.81,-230 1058.81,-230"/>
<polygon fill="black" stroke="black" points="1058.81,-226.5 1048.81,-230 1058.81,-233.5 1058.81,-226.5"/>
</g>
<!-- UploadModule -->
<g id="node16" class="node">
<title>UploadModule</title>
<polygon fill="#8dd3c7" stroke="black" points="526.26,-190 523.26,-194 502.26,-194 499.26,-190 425.74,-190 425.74,-154 526.26,-154 526.26,-190"/>
<text text-anchor="middle" x="476" y="-167.8" font-family="Times,serif" font-size="14.00">UploadModule</text>
</g>
<!-- UploadModule&#45;&gt;AppModule -->
<g id="edge16" class="edge">
<title>UploadModule&#45;&gt;AppModule</title>
<path fill="none" stroke="black" d="M476,-190.31C476,-210.15 476,-239 476,-239 476,-239 955.33,-239 955.33,-239"/>
<polygon fill="black" stroke="black" points="955.33,-242.5 965.33,-239 955.33,-235.5 955.33,-242.5"/>
</g>
<!-- UserModule -->
<g id="node17" class="node">
<title>UserModule</title>
<polygon fill="#8dd3c7" stroke="black" points="1644.98,-190 1641.98,-194 1620.98,-194 1617.98,-190 1559.02,-190 1559.02,-154 1644.98,-154 1644.98,-190"/>
<text text-anchor="middle" x="1602" y="-167.8" font-family="Times,serif" font-size="14.00">UserModule</text>
</g>
<!-- UserModule&#45;&gt;AppModule -->
<g id="edge17" class="edge">
<title>UserModule&#45;&gt;AppModule</title>
<path fill="none" stroke="black" d="M1616.33,-190.27C1616.33,-208.56 1616.33,-234 1616.33,-234 1616.33,-234 1058.88,-234 1058.88,-234"/>
<polygon fill="black" stroke="black" points="1058.88,-230.5 1048.88,-234 1058.88,-237.5 1058.88,-230.5"/>
</g>
<!-- UserProgressModule -->
<g id="node18" class="node">
<title>UserProgressModule</title>
<polygon fill="#8dd3c7" stroke="black" points="2273.18,-190 2270.18,-194 2249.18,-194 2246.18,-190 2138.82,-190 2138.82,-154 2273.18,-154 2273.18,-190"/>
<text text-anchor="middle" x="2206" y="-167.8" font-family="Times,serif" font-size="14.00">UserProgressModule</text>
</g>
<!-- UserProgressModule&#45;&gt;AppModule -->
<g id="edge18" class="edge">
<title>UserProgressModule&#45;&gt;AppModule</title>
<path fill="none" stroke="black" d="M2206,-190.15C2206,-213.76 2206,-252 2206,-252 2206,-252 1058.97,-252 1058.97,-252"/>
<polygon fill="black" stroke="black" points="1058.97,-248.5 1048.97,-252 1058.97,-255.5 1058.97,-248.5"/>
</g>
<!-- AppService -->
<g id="node20" class="node">
<title>AppService</title>
<ellipse fill="#fdb462" stroke="black" cx="806" cy="-104" rx="56.74" ry="18"/>
<text text-anchor="middle" x="806" y="-99.8" font-family="Times,serif" font-size="14.00">AppService</text>
</g>
<!-- AppService&#45;&gt;AppModule -->
<g id="edge19" class="edge">
<title>AppService&#45;&gt;AppModule</title>
<path fill="none" stroke="black" d="M767.44,-117.63C767.44,-149.66 767.44,-227 767.44,-227 767.44,-227 955.27,-227 955.27,-227"/>
<polygon fill="black" stroke="black" points="955.27,-230.5 965.27,-227 955.27,-223.5 955.27,-230.5"/>
</g>
<!-- PrismaService -->
<g id="node21" class="node">
<title>PrismaService</title>
<ellipse fill="#fdb462" stroke="black" cx="947" cy="-104" rx="66.63" ry="18"/>
<text text-anchor="middle" x="947" y="-99.8" font-family="Times,serif" font-size="14.00">PrismaService</text>
</g>
<!-- PrismaService&#45;&gt;AttachmentModule -->
<g id="edge22" class="edge">
<title>PrismaService&#45;&gt;AttachmentModule</title>
<path fill="none" stroke="black" d="M914.68,-120.03C914.68,-121.81 914.68,-123 914.68,-123 914.68,-123 118,-123 118,-123 118,-123 118,-143.75 118,-143.75"/>
<polygon fill="black" stroke="black" points="114.5,-143.75 118,-153.75 121.5,-143.75 114.5,-143.75"/>
</g>
<!-- PrismaService&#45;&gt;AuthModule -->
<g id="edge26" class="edge">
<title>PrismaService&#45;&gt;AuthModule</title>
<path fill="none" stroke="black" d="M936.23,-121.86C936.23,-123.17 936.23,-124 936.23,-124 936.23,-124 220.11,-124 220.11,-124 220.11,-124 220.11,-143.85 220.11,-143.85"/>
<polygon fill="black" stroke="black" points="216.61,-143.85 220.11,-153.85 223.61,-143.85 216.61,-143.85"/>
</g>
<!-- PrismaService&#45;&gt;ChapterModule -->
<g id="edge28" class="edge">
<title>PrismaService&#45;&gt;ChapterModule</title>
<path fill="none" stroke="black" d="M882.34,-108.88C882.34,-115.63 882.34,-127 882.34,-127 882.34,-127 338.69,-127 338.69,-127 338.69,-127 338.69,-143.96 338.69,-143.96"/>
<polygon fill="black" stroke="black" points="335.19,-143.96 338.69,-153.96 342.19,-143.96 335.19,-143.96"/>
</g>
<!-- PrismaService&#45;&gt;ChatgptModule -->
<g id="edge30" class="edge">
<title>PrismaService&#45;&gt;ChatgptModule</title>
<path fill="none" stroke="black" d="M886.66,-111.92C886.66,-120.51 886.66,-133 886.66,-133 886.66,-133 564.84,-133 564.84,-133 564.84,-133 564.84,-143.87 564.84,-143.87"/>
<polygon fill="black" stroke="black" points="561.34,-143.87 564.84,-153.87 568.34,-143.87 561.34,-143.87"/>
</g>
<!-- PrismaService&#45;&gt;CodeModule -->
<g id="edge35" class="edge">
<title>PrismaService&#45;&gt;CodeModule</title>
<path fill="none" stroke="black" d="M1010.32,-98C1227.55,-98 1929.27,-98 1929.27,-98 1929.27,-98 1929.27,-143.71 1929.27,-143.71"/>
<polygon fill="black" stroke="black" points="1925.77,-143.71 1929.27,-153.71 1932.77,-143.71 1925.77,-143.71"/>
</g>
<!-- PrismaService&#45;&gt;CourseModule -->
<g id="edge38" class="edge">
<title>PrismaService&#45;&gt;CourseModule</title>
<path fill="none" stroke="black" d="M890.97,-114.03C890.97,-132.95 890.97,-172 890.97,-172 890.97,-172 885.9,-172 885.9,-172"/>
<polygon fill="black" stroke="black" points="885.9,-168.5 875.9,-172 885.9,-175.5 885.9,-168.5"/>
</g>
<!-- PrismaService&#45;&gt;EvaluateModule -->
<g id="edge41" class="edge">
<title>PrismaService&#45;&gt;EvaluateModule</title>
<path fill="none" stroke="black" d="M1013.43,-102C1215.95,-102 1811.87,-102 1811.87,-102 1811.87,-102 1811.87,-143.97 1811.87,-143.97"/>
<polygon fill="black" stroke="black" points="1808.37,-143.97 1811.87,-153.97 1815.37,-143.97 1808.37,-143.97"/>
</g>
<!-- PrismaService&#45;&gt;ExerciseModule -->
<g id="edge44" class="edge">
<title>PrismaService&#45;&gt;ExerciseModule</title>
<path fill="none" stroke="black" d="M957.77,-121.87C957.77,-121.87 957.77,-143.54 957.77,-143.54"/>
<polygon fill="black" stroke="black" points="954.27,-143.54 957.77,-153.54 961.27,-143.54 954.27,-143.54"/>
</g>
<!-- PrismaService&#45;&gt;LessonModule -->
<g id="edge46" class="edge">
<title>PrismaService&#45;&gt;LessonModule</title>
<path fill="none" stroke="black" d="M1009.5,-110.52C1009.5,-127.54 1009.5,-172 1009.5,-172 1009.5,-172 1010.36,-172 1010.36,-172"/>
<polygon fill="black" stroke="black" points="1008.13,-175.5 1018.13,-172 1008.13,-168.5 1008.13,-175.5"/>
</g>
<!-- PrismaService&#45;&gt;MessageModule -->
<g id="edge50" class="edge">
<title>PrismaService&#45;&gt;MessageModule</title>
<path fill="none" stroke="black" d="M989.04,-118C1054.14,-118 1171.91,-118 1171.91,-118 1171.91,-118 1171.91,-143.72 1171.91,-143.72"/>
<polygon fill="black" stroke="black" points="1168.41,-143.72 1171.91,-153.72 1175.41,-143.72 1168.41,-143.72"/>
</g>
<!-- PrismaService&#45;&gt;QuizzModule -->
<g id="edge52" class="edge">
<title>PrismaService&#45;&gt;QuizzModule</title>
<path fill="none" stroke="black" d="M888.81,-112.93C888.81,-123.01 888.81,-138 888.81,-138 888.81,-138 753.93,-138 753.93,-138 753.93,-138 753.93,-143.81 753.93,-143.81"/>
<polygon fill="black" stroke="black" points="750.43,-143.81 753.93,-153.81 757.43,-143.81 750.43,-143.81"/>
</g>
<!-- PrismaService&#45;&gt;RegisterInstructorModule -->
<g id="edge55" class="edge">
<title>PrismaService&#45;&gt;RegisterInstructorModule</title>
<path fill="none" stroke="black" d="M1002.6,-114C1102.68,-114 1302.84,-114 1302.84,-114 1302.84,-114 1302.84,-143.97 1302.84,-143.97"/>
<polygon fill="black" stroke="black" points="1299.34,-143.97 1302.84,-153.97 1306.34,-143.97 1299.34,-143.97"/>
</g>
<!-- PrismaService&#45;&gt;ReviewModule -->
<g id="edge58" class="edge">
<title>PrismaService&#45;&gt;ReviewModule</title>
<path fill="none" stroke="black" d="M1002.69,-94C1229.29,-94 2070,-94 2070,-94 2070,-94 2070,-143.91 2070,-143.91"/>
<polygon fill="black" stroke="black" points="2066.5,-143.91 2070,-153.91 2073.5,-143.91 2066.5,-143.91"/>
</g>
<!-- PrismaService&#45;&gt;ThreadModule -->
<g id="edge60" class="edge">
<title>PrismaService&#45;&gt;ThreadModule</title>
<path fill="none" stroke="black" d="M1010.1,-110C1150.11,-110 1474.47,-110 1474.47,-110 1474.47,-110 1474.47,-143.73 1474.47,-143.73"/>
<polygon fill="black" stroke="black" points="1470.97,-143.73 1474.47,-153.73 1477.97,-143.73 1470.97,-143.73"/>
</g>
<!-- PrismaService&#45;&gt;UploadModule -->
<g id="edge64" class="edge">
<title>PrismaService&#45;&gt;UploadModule</title>
<path fill="none" stroke="black" d="M884.5,-110.57C884.5,-117.98 884.5,-129 884.5,-129 884.5,-129 445.77,-129 445.77,-129 445.77,-129 445.77,-143.51 445.77,-143.51"/>
<polygon fill="black" stroke="black" points="442.27,-143.51 445.77,-153.51 449.27,-143.51 442.27,-143.51"/>
</g>
<!-- PrismaService&#45;&gt;UserModule -->
<g id="edge67" class="edge">
<title>PrismaService&#45;&gt;UserModule</title>
<path fill="none" stroke="black" d="M1013.45,-106C1177.34,-106 1587.67,-106 1587.67,-106 1587.67,-106 1587.67,-143.97 1587.67,-143.97"/>
<polygon fill="black" stroke="black" points="1584.17,-143.97 1587.67,-153.97 1591.17,-143.97 1584.17,-143.97"/>
</g>
<!-- PrismaService&#45;&gt;UserProgressModule -->
<g id="edge70" class="edge">
<title>PrismaService&#45;&gt;UserProgressModule</title>
<path fill="none" stroke="black" d="M989.25,-90C1208.44,-90 2206,-90 2206,-90 2206,-90 2206,-143.8 2206,-143.8"/>
<polygon fill="black" stroke="black" points="2202.5,-143.8 2206,-153.8 2209.5,-143.8 2202.5,-143.8"/>
</g>
<!-- PrismaService&#45;&gt;AppModule -->
<g id="edge20" class="edge">
<title>PrismaService&#45;&gt;AppModule</title>
<path fill="none" stroke="black" d="M1005.19,-113.14C1005.19,-113.14 1005.19,-208.71 1005.19,-208.71"/>
<polygon fill="black" stroke="black" points="1001.69,-208.71 1005.19,-218.71 1008.69,-208.71 1001.69,-208.71"/>
</g>
<!-- AttachmentService -->
<g id="node22" class="node">
<title>AttachmentService</title>
<ellipse fill="#fdb462" stroke="black" cx="2398" cy="-104" rx="85.09" ry="18"/>
<text text-anchor="middle" x="2398" y="-99.8" font-family="Times,serif" font-size="14.00">AttachmentService</text>
</g>
<!-- AttachmentService&#45;&gt;AttachmentModule -->
<g id="edge21" class="edge">
<title>AttachmentService&#45;&gt;AttachmentModule</title>
<path fill="none" stroke="black" d="M2398,-122.32C2398,-153.13 2398,-212 2398,-212 2398,-212 118,-212 118,-212 118,-212 118,-200.13 118,-200.13"/>
<polygon fill="black" stroke="black" points="121.5,-200.13 118,-190.13 114.5,-200.13 121.5,-200.13"/>
</g>
<!-- UploadService -->
<g id="node23" class="node">
<title>UploadService</title>
<ellipse fill="#fdb462" stroke="black" cx="2569" cy="-104" rx="68.34" ry="18"/>
<text text-anchor="middle" x="2569" y="-99.8" font-family="Times,serif" font-size="14.00">UploadService</text>
</g>
<!-- UploadService&#45;&gt;AttachmentModule -->
<g id="edge23" class="edge">
<title>UploadService&#45;&gt;AttachmentModule</title>
<path fill="none" stroke="black" d="M2623.74,-115.15C2623.74,-143.48 2623.74,-216 2623.74,-216 2623.74,-216 86.78,-216 86.78,-216 86.78,-216 86.78,-200.15 86.78,-200.15"/>
<polygon fill="black" stroke="black" points="90.28,-200.15 86.78,-190.15 83.28,-200.15 90.28,-200.15"/>
</g>
<!-- UploadService&#45;&gt;ChatgptModule -->
<g id="edge32" class="edge">
<title>UploadService&#45;&gt;ChatgptModule</title>
<path fill="none" stroke="black" d="M2527.95,-118.65C2527.95,-126.26 2527.95,-134 2527.95,-134 2527.95,-134 585.61,-134 585.61,-134 585.61,-134 585.61,-143.89 585.61,-143.89"/>
<polygon fill="black" stroke="black" points="582.11,-143.89 585.61,-153.89 589.11,-143.89 582.11,-143.89"/>
</g>
<!-- UploadService&#45;&gt;CourseModule -->
<g id="edge39" class="edge">
<title>UploadService&#45;&gt;CourseModule</title>
<path fill="none" stroke="black" d="M2541.63,-120.68C2541.63,-129.69 2541.63,-139 2541.63,-139 2541.63,-139 819.51,-139 819.51,-139 819.51,-139 819.51,-143.96 819.51,-143.96"/>
<polygon fill="black" stroke="black" points="816.01,-143.96 819.51,-153.96 823.01,-143.96 816.01,-143.96"/>
</g>
<!-- UploadService&#45;&gt;LessonModule -->
<g id="edge47" class="edge">
<title>UploadService&#45;&gt;LessonModule</title>
<path fill="none" stroke="black" d="M2555.32,-122.07C2555.32,-131.46 2555.32,-141 2555.32,-141 2555.32,-141 1051.47,-141 1051.47,-141 1051.47,-141 1051.47,-143.97 1051.47,-143.97"/>
<polygon fill="black" stroke="black" points="1047.97,-143.97 1051.47,-153.97 1054.97,-143.97 1047.97,-143.97"/>
</g>
<!-- UploadService&#45;&gt;MessageModule -->
<g id="edge51" class="edge">
<title>UploadService&#45;&gt;MessageModule</title>
<path fill="none" stroke="black" d="M2569,-122.13C2569,-132.31 2569,-143 2569,-143 2569,-143 1208.09,-143 1208.09,-143 1208.09,-143 1208.09,-144.08 1208.09,-144.08"/>
<polygon fill="black" stroke="black" points="1204.59,-143.8 1208.09,-153.8 1211.59,-143.8 1204.59,-143.8"/>
</g>
<!-- UploadService&#45;&gt;RegisterInstructorModule -->
<g id="edge57" class="edge">
<title>UploadService&#45;&gt;RegisterInstructorModule</title>
<path fill="none" stroke="black" d="M2582.68,-121.66C2582.68,-132.38 2582.68,-144 2582.68,-144 2582.68,-144 1343,-144 1343,-144 1343,-144 1343,-144.98 1343,-144.98"/>
<polygon fill="black" stroke="black" points="1339.5,-143.79 1343,-153.79 1346.5,-143.79 1339.5,-143.79"/>
</g>
<!-- UploadService&#45;&gt;ThreadModule -->
<g id="edge62" class="edge">
<title>UploadService&#45;&gt;ThreadModule</title>
<path fill="none" stroke="black" d="M2596.37,-120.6C2596.37,-132.34 2596.37,-146 2596.37,-146 2596.37,-146 1507.53,-146 1507.53,-146 1507.53,-146 1507.53,-146.79 1507.53,-146.79"/>
<polygon fill="black" stroke="black" points="1504.03,-143.94 1507.53,-153.94 1511.03,-143.94 1504.03,-143.94"/>
</g>
<!-- UploadService&#45;&gt;UploadModule -->
<g id="edge66" class="edge">
<title>UploadService&#45;&gt;UploadModule</title>
<path fill="none" stroke="black" d="M2514.26,-114.88C2514.26,-122 2514.26,-130 2514.26,-130 2514.26,-130 465.92,-130 465.92,-130 465.92,-130 465.92,-143.94 465.92,-143.94"/>
<polygon fill="black" stroke="black" points="462.42,-143.94 465.92,-153.94 469.42,-143.94 462.42,-143.94"/>
</g>
<!-- UploadService&#45;&gt;UserModule -->
<g id="edge68" class="edge">
<title>UploadService&#45;&gt;UserModule</title>
<path fill="none" stroke="black" d="M2610.05,-118.56C2610.05,-131.03 2610.05,-147 2610.05,-147 2610.05,-147 1616.33,-147 1616.33,-147 1616.33,-147 1616.33,-147.68 1616.33,-147.68"/>
<polygon fill="black" stroke="black" points="1612.83,-143.83 1616.33,-153.83 1619.83,-143.83 1612.83,-143.83"/>
</g>
<!-- AuthService -->
<g id="node24" class="node">
<title>AuthService</title>
<ellipse fill="#fdb462" stroke="black" cx="2736" cy="-104" rx="59.11" ry="18"/>
<text text-anchor="middle" x="2736" y="-99.8" font-family="Times,serif" font-size="14.00">AuthService</text>
</g>
<!-- AuthService&#45;&gt;AuthModule -->
<g id="edge24" class="edge">
<title>AuthService&#45;&gt;AuthModule</title>
<path fill="none" stroke="black" d="M2736,-122.08C2736,-123.85 2736,-125 2736,-125 2736,-125 242,-125 242,-125 242,-125 242,-143.96 242,-143.96"/>
<polygon fill="black" stroke="black" points="238.5,-143.96 242,-153.96 245.5,-143.96 238.5,-143.96"/>
</g>
<!-- MailingService -->
<g id="node25" class="node">
<title>MailingService</title>
<ellipse fill="#fdb462" stroke="black" cx="2884" cy="-104" rx="70.64" ry="18"/>
<text text-anchor="middle" x="2884" y="-99.8" font-family="Times,serif" font-size="14.00">MailingService</text>
</g>
<!-- MailingService&#45;&gt;AuthModule -->
<g id="edge25" class="edge">
<title>MailingService&#45;&gt;AuthModule</title>
<path fill="none" stroke="black" d="M2848.71,-119.99C2848.71,-123.4 2848.71,-126 2848.71,-126 2848.71,-126 263.89,-126 263.89,-126 263.89,-126 263.89,-143.82 263.89,-143.82"/>
<polygon fill="black" stroke="black" points="260.39,-143.82 263.89,-153.82 267.39,-143.82 260.39,-143.82"/>
</g>
<!-- MailingService&#45;&gt;MailingModule -->
<g id="edge48" class="edge">
<title>MailingService&#45;&gt;MailingModule</title>
<path fill="none" stroke="black" d="M2919.29,-119.89C2919.29,-132.49 2919.29,-148 2919.29,-148 2919.29,-148 1715,-148 1715,-148 1715,-148 1715,-148.58 1715,-148.58"/>
<polygon fill="black" stroke="black" points="1711.5,-143.81 1715,-153.81 1718.5,-143.81 1711.5,-143.81"/>
</g>
<!-- MailingService&#45;&gt;RegisterInstructorModule -->
<g id="edge54" class="edge">
<title>MailingService&#45;&gt;RegisterInstructorModule</title>
<path fill="none" stroke="black" d="M2884,-122.1C2884,-133.09 2884,-145 2884,-145 2884,-145 1383.16,-145 1383.16,-145 1383.16,-145 1383.16,-145.88 1383.16,-145.88"/>
<polygon fill="black" stroke="black" points="1379.66,-143.84 1383.16,-153.84 1386.66,-143.84 1379.66,-143.84"/>
</g>
<!-- ChapterService -->
<g id="node26" class="node">
<title>ChapterService</title>
<ellipse fill="#fdb462" stroke="black" cx="3066" cy="-104" rx="70.62" ry="18"/>
<text text-anchor="middle" x="3066" y="-99.8" font-family="Times,serif" font-size="14.00">ChapterService</text>
</g>
<!-- ChapterService&#45;&gt;ChapterModule -->
<g id="edge27" class="edge">
<title>ChapterService&#45;&gt;ChapterModule</title>
<path fill="none" stroke="black" d="M3066,-122.19C3066,-125.54 3066,-128 3066,-128 3066,-128 373.31,-128 373.31,-128 373.31,-128 373.31,-143.85 373.31,-143.85"/>
<polygon fill="black" stroke="black" points="369.81,-143.85 373.31,-153.85 376.81,-143.85 369.81,-143.85"/>
</g>
<!-- ChatgptService -->
<g id="node27" class="node">
<title>ChatgptService</title>
<ellipse fill="#fdb462" stroke="black" cx="3248" cy="-104" rx="70.64" ry="18"/>
<text text-anchor="middle" x="3248" y="-99.8" font-family="Times,serif" font-size="14.00">ChatgptService</text>
</g>
<!-- ChatgptService&#45;&gt;ChatgptModule -->
<g id="edge29" class="edge">
<title>ChatgptService&#45;&gt;ChatgptModule</title>
<path fill="none" stroke="black" d="M3271.52,-121.31C3271.52,-128.41 3271.52,-135 3271.52,-135 3271.52,-135 606.39,-135 606.39,-135 606.39,-135 606.39,-143.93 606.39,-143.93"/>
<polygon fill="black" stroke="black" points="602.89,-143.93 606.39,-153.93 609.89,-143.93 602.89,-143.93"/>
</g>
<!-- ChatgptService&#45;&gt;UploadModule -->
<g id="edge63" class="edge">
<title>ChatgptService&#45;&gt;UploadModule</title>
<path fill="none" stroke="black" d="M3224.48,-121.25C3224.48,-126.54 3224.48,-131 3224.48,-131 3224.48,-131 486.08,-131 486.08,-131 486.08,-131 486.08,-143.9 486.08,-143.9"/>
<polygon fill="black" stroke="black" points="482.58,-143.9 486.08,-153.9 489.58,-143.9 482.58,-143.9"/>
</g>
<!-- QuizzService -->
<g id="node28" class="node">
<title>QuizzService</title>
<ellipse fill="#fdb462" stroke="black" cx="3400" cy="-104" rx="63.1" ry="18"/>
<text text-anchor="middle" x="3400" y="-99.8" font-family="Times,serif" font-size="14.00">QuizzService</text>
</g>
<!-- QuizzService&#45;&gt;ChatgptModule -->
<g id="edge31" class="edge">
<title>QuizzService&#45;&gt;ChatgptModule</title>
<path fill="none" stroke="black" d="M3378.98,-121.12C3378.98,-128.73 3378.98,-136 3378.98,-136 3378.98,-136 627.16,-136 627.16,-136 627.16,-136 627.16,-143.58 627.16,-143.58"/>
<polygon fill="black" stroke="black" points="623.66,-143.58 627.16,-153.58 630.66,-143.58 623.66,-143.58"/>
</g>
<!-- QuizzService&#45;&gt;CodeModule -->
<g id="edge36" class="edge">
<title>QuizzService&#45;&gt;CodeModule</title>
<path fill="none" stroke="black" d="M3442.03,-117.59C3442.03,-131.48 3442.03,-151 3442.03,-151 3442.03,-151 1947.09,-151 1947.09,-151 1947.09,-151 1947.09,-151.29 1947.09,-151.29"/>
<polygon fill="black" stroke="black" points="1943.59,-143.92 1947.09,-153.92 1950.59,-143.92 1943.59,-143.92"/>
</g>
<!-- QuizzService&#45;&gt;EvaluateModule -->
<g id="edge42" class="edge">
<title>QuizzService&#45;&gt;EvaluateModule</title>
<path fill="none" stroke="black" d="M3421.02,-121.01C3421.02,-133.76 3421.02,-149 3421.02,-149 3421.02,-149 1839,-149 1839,-149 1839,-149 1839,-149.49 1839,-149.49"/>
<polygon fill="black" stroke="black" points="1835.5,-143.88 1839,-153.88 1842.5,-143.88 1835.5,-143.88"/>
</g>
<!-- QuizzService&#45;&gt;QuizzModule -->
<g id="edge53" class="edge">
<title>QuizzService&#45;&gt;QuizzModule</title>
<path fill="none" stroke="black" d="M3400,-122.04C3400,-129.75 3400,-137 3400,-137 3400,-137 707.45,-137 707.45,-137 707.45,-137 707.45,-143.68 707.45,-143.68"/>
<polygon fill="black" stroke="black" points="703.95,-143.68 707.45,-153.68 710.95,-143.68 703.95,-143.68"/>
</g>
<!-- QuizzService&#45;&gt;UploadModule -->
<g id="edge65" class="edge">
<title>QuizzService&#45;&gt;UploadModule</title>
<path fill="none" stroke="black" d="M3357.97,-117.67C3357.97,-124.78 3357.97,-132 3357.97,-132 3357.97,-132 506.23,-132 506.23,-132 506.23,-132 506.23,-143.87 506.23,-143.87"/>
<polygon fill="black" stroke="black" points="502.73,-143.87 506.23,-153.87 509.73,-143.87 502.73,-143.87"/>
</g>
<!-- CodeService -->
<g id="node29" class="node">
<title>CodeService</title>
<ellipse fill="#fdb462" stroke="black" cx="3729" cy="-104" rx="60.25" ry="18"/>
<text text-anchor="middle" x="3729" y="-99.8" font-family="Times,serif" font-size="14.00">CodeService</text>
</g>
<!-- CodeService&#45;&gt;CodeModule -->
<g id="edge33" class="edge">
<title>CodeService&#45;&gt;CodeModule</title>
<path fill="none" stroke="black" d="M3729,-122.25C3729,-136.18 3729,-153 3729,-153 3729,-153 1982.73,-153 1982.73,-153 1982.73,-153 1982.73,-153.08 1982.73,-153.08"/>
<polygon fill="black" stroke="black" points="1979.23,-143.82 1982.73,-153.82 1986.23,-143.82 1979.23,-143.82"/>
</g>
<!-- EvaluateService -->
<g id="node30" class="node">
<title>EvaluateService</title>
<ellipse fill="#fdb462" stroke="black" cx="3577" cy="-104" rx="73.55" ry="18"/>
<text text-anchor="middle" x="3577" y="-99.8" font-family="Times,serif" font-size="14.00">EvaluateService</text>
</g>
<!-- EvaluateService&#45;&gt;CodeModule -->
<g id="edge34" class="edge">
<title>EvaluateService&#45;&gt;CodeModule</title>
<path fill="none" stroke="black" d="M3601.59,-121.06C3601.59,-134.85 3601.59,-152 3601.59,-152 3601.59,-152 1964.91,-152 1964.91,-152 1964.91,-152 1964.91,-152.18 1964.91,-152.18"/>
<polygon fill="black" stroke="black" points="1961.41,-143.85 1964.91,-153.85 1968.41,-143.85 1961.41,-143.85"/>
</g>
<!-- EvaluateService&#45;&gt;EvaluateModule -->
<g id="edge40" class="edge">
<title>EvaluateService&#45;&gt;EvaluateModule</title>
<path fill="none" stroke="black" d="M3552.41,-121.13C3552.41,-134.21 3552.41,-150 3552.41,-150 3552.41,-150 1866.13,-150 1866.13,-150 1866.13,-150 1866.13,-150.38 1866.13,-150.38"/>
<polygon fill="black" stroke="black" points="1862.63,-143.83 1866.13,-153.83 1869.63,-143.83 1862.63,-143.83"/>
</g>
<!-- CourseService -->
<g id="node31" class="node">
<title>CourseService</title>
<ellipse fill="#fdb462" stroke="black" cx="3896" cy="-104" rx="67.19" ry="18"/>
<text text-anchor="middle" x="3896" y="-99.8" font-family="Times,serif" font-size="14.00">CourseService</text>
</g>
<!-- CourseService&#45;&gt;CourseModule -->
<g id="edge37" class="edge">
<title>CourseService&#45;&gt;CourseModule</title>
<path fill="none" stroke="black" d="M3896,-86C3896,-77 3896,-68 3896,-68 3896,-68 869.11,-68 869.11,-68 869.11,-68 869.11,-143.88 869.11,-143.88"/>
<polygon fill="black" stroke="black" points="865.61,-143.88 869.11,-153.88 872.61,-143.88 865.61,-143.88"/>
</g>
<!-- ExerciseService -->
<g id="node32" class="node">
<title>ExerciseService</title>
<ellipse fill="#fdb462" stroke="black" cx="4076" cy="-104" rx="73.47" ry="18"/>
<text text-anchor="middle" x="4076" y="-99.8" font-family="Times,serif" font-size="14.00">ExerciseService</text>
</g>
<!-- ExerciseService&#45;&gt;ExerciseModule -->
<g id="edge43" class="edge">
<title>ExerciseService&#45;&gt;ExerciseModule</title>
<path fill="none" stroke="black" d="M4076,-122C4076,-131 4076,-140 4076,-140 4076,-140 979.32,-140 979.32,-140 979.32,-140 979.32,-143.76 979.32,-143.76"/>
<polygon fill="black" stroke="black" points="975.82,-143.76 979.32,-153.76 982.82,-143.76 975.82,-143.76"/>
</g>
<!-- LessonService -->
<g id="node33" class="node">
<title>LessonService</title>
<ellipse fill="#fdb462" stroke="black" cx="4256" cy="-104" rx="67.19" ry="18"/>
<text text-anchor="middle" x="4256" y="-99.8" font-family="Times,serif" font-size="14.00">LessonService</text>
</g>
<!-- LessonService&#45;&gt;LessonModule -->
<g id="edge45" class="edge">
<title>LessonService&#45;&gt;LessonModule</title>
<path fill="none" stroke="black" d="M4256,-122.11C4256,-131.9 4256,-142 4256,-142 4256,-142 1084.53,-142 1084.53,-142 1084.53,-142 1084.53,-143.86 1084.53,-143.86"/>
<polygon fill="black" stroke="black" points="1081.03,-143.86 1084.53,-153.86 1088.03,-143.86 1081.03,-143.86"/>
</g>
<!-- MessageService -->
<g id="node34" class="node">
<title>MessageService</title>
<ellipse fill="#fdb462" stroke="black" cx="4437" cy="-104" rx="73.55" ry="18"/>
<text text-anchor="middle" x="4437" y="-99.8" font-family="Times,serif" font-size="14.00">MessageService</text>
</g>
<!-- MessageService&#45;&gt;MessageModule -->
<g id="edge49" class="edge">
<title>MessageService&#45;&gt;MessageModule</title>
<path fill="none" stroke="black" d="M4437,-122.12C4437,-149.44 4437,-198 4437,-198 4437,-198 1171.91,-198 1171.91,-198 1171.91,-198 1171.91,-197.21 1171.91,-197.21"/>
<polygon fill="black" stroke="black" points="1175.41,-200.06 1171.91,-190.06 1168.41,-200.06 1175.41,-200.06"/>
</g>
<!-- RegisterInstructorService -->
<g id="node35" class="node">
<title>RegisterInstructorService</title>
<ellipse fill="#fdb462" stroke="black" cx="4661" cy="-104" rx="109.92" ry="18"/>
<text text-anchor="middle" x="4661" y="-99.8" font-family="Times,serif" font-size="14.00">RegisterInstructorService</text>
</g>
<!-- RegisterInstructorService&#45;&gt;RegisterInstructorModule -->
<g id="edge56" class="edge">
<title>RegisterInstructorService&#45;&gt;RegisterInstructorModule</title>
<path fill="none" stroke="black" d="M4661,-122.21C4661,-148.51 4661,-194 4661,-194 4661,-194 1316.23,-194 1316.23,-194 1316.23,-194 1316.23,-193.62 1316.23,-193.62"/>
<polygon fill="black" stroke="black" points="1319.73,-200.17 1316.23,-190.17 1312.73,-200.17 1319.73,-200.17"/>
</g>
<!-- ReviewService -->
<g id="node36" class="node">
<title>ReviewService</title>
<ellipse fill="#fdb462" stroke="black" cx="4880" cy="-104" rx="69.48" ry="18"/>
<text text-anchor="middle" x="4880" y="-99.8" font-family="Times,serif" font-size="14.00">ReviewService</text>
</g>
<!-- ReviewService&#45;&gt;ReviewModule -->
<g id="edge59" class="edge">
<title>ReviewService&#45;&gt;ReviewModule</title>
<path fill="none" stroke="black" d="M4880,-122.24C4880,-150.34 4880,-201 4880,-201 4880,-201 2052.95,-201 2052.95,-201 2052.95,-201 2052.95,-199.92 2052.95,-199.92"/>
<polygon fill="black" stroke="black" points="2056.45,-200.2 2052.95,-190.2 2049.45,-200.2 2056.45,-200.2"/>
</g>
<!-- ThreadService -->
<g id="node37" class="node">
<title>ThreadService</title>
<ellipse fill="#fdb462" stroke="black" cx="5056" cy="-104" rx="67.17" ry="18"/>
<text text-anchor="middle" x="5056" y="-99.8" font-family="Times,serif" font-size="14.00">ThreadService</text>
</g>
<!-- ThreadService&#45;&gt;ThreadModule -->
<g id="edge61" class="edge">
<title>ThreadService&#45;&gt;ThreadModule</title>
<path fill="none" stroke="black" d="M5056,-122.29C5056,-152.37 5056,-209 5056,-209 5056,-209 1474.47,-209 1474.47,-209 1474.47,-209 1474.47,-200.07 1474.47,-200.07"/>
<polygon fill="black" stroke="black" points="1477.97,-200.07 1474.47,-190.07 1470.97,-200.07 1477.97,-200.07"/>
</g>
<!-- UserService -->
<g id="node38" class="node">
<title>UserService</title>
<ellipse fill="#fdb462" stroke="black" cx="5221" cy="-104" rx="58.44" ry="18"/>
<text text-anchor="middle" x="5221" y="-99.8" font-family="Times,serif" font-size="14.00">UserService</text>
</g>
<!-- UserService&#45;&gt;UserModule -->
<g id="edge69" class="edge">
<title>UserService&#45;&gt;UserModule</title>
<path fill="none" stroke="black" d="M5221,-122.06C5221,-151.11 5221,-205 5221,-205 5221,-205 1587.67,-205 1587.67,-205 1587.67,-205 1587.67,-200.04 1587.67,-200.04"/>
<polygon fill="black" stroke="black" points="1591.17,-200.04 1587.67,-190.04 1584.17,-200.04 1591.17,-200.04"/>
</g>
<!-- UserProgressService -->
<g id="node39" class="node">
<title>UserProgressService</title>
<ellipse fill="#fdb462" stroke="black" cx="5410" cy="-104" rx="91.45" ry="18"/>
<text text-anchor="middle" x="5410" y="-99.8" font-family="Times,serif" font-size="14.00">UserProgressService</text>
</g>
<!-- UserProgressService&#45;&gt;UserProgressModule -->
<g id="edge71" class="edge">
<title>UserProgressService&#45;&gt;UserProgressModule</title>
<path fill="none" stroke="black" d="M5410,-122.22C5410,-142.37 5410,-172 5410,-172 5410,-172 2283.29,-172 2283.29,-172"/>
<polygon fill="black" stroke="black" points="2283.29,-168.5 2273.29,-172 2283.29,-175.5 2283.29,-168.5"/>
</g>
</g>
</svg>
